<svg width="1200" height="620" fill="none" xmlns="http://www.w3.org/2000/svg"><g clip-path="url(#clip0_1321_7992)"><path fill="#F1F0EE" d="M0 0H1200V620H0z"/><g clip-path="url(#clip1_1321_7992)"><path d="M282.561 299.88c0 21.295 17.263 38.557 38.558 38.557 21.294 0 38.557-17.262 38.557-38.557 0-21.294-17.263-38.557-38.557-38.557-21.295 0-38.558 17.263-38.558 38.557z" fill="#68CFBB"/><path d="M299.974 340.705v-18.662c0-2.845 1.131-5.574 3.142-7.586a10.733 10.733 0 0 1 7.586-3.142h21.455a10.728 10.728 0 0 1 10.728 10.728v31.541" fill="#7C7BC2"/><path fill-rule="evenodd" clip-rule="evenodd" d="M341.517 312.683a13.234 13.234 0 0 0-9.36-3.878h-21.455a13.238 13.238 0 0 0-13.238 13.238v18.662a2.51 2.51 0 0 0 5.02 0v-18.662a8.22 8.22 0 0 1 8.218-8.218h21.455a8.22 8.22 0 0 1 8.218 8.218v31.541a2.509 2.509 0 1 0 5.02 0v-31.541c0-3.511-1.395-6.878-3.878-9.36z" fill="#323537"/><path d="M321.43 300.588c-5.925 0-10.728-4.803-10.728-10.727 0-5.925 4.803-10.728 10.728-10.728 5.924 0 10.727 4.803 10.727 10.728 0 5.924-4.803 10.727-10.727 10.727z" fill="#fff"/><path fill-rule="evenodd" clip-rule="evenodd" d="M321.429 281.643a8.218 8.218 0 1 1 0 16.435 8.218 8.218 0 0 1 0-16.435zm13.238 8.218c0-7.311-5.927-13.238-13.238-13.238s-13.237 5.927-13.237 13.238c0 7.31 5.926 13.237 13.237 13.237s13.238-5.927 13.238-13.237z" fill="#323537"/></g><rect x="-2.51" y="2.51" width="72.094" height="72.094" rx="36.047" transform="matrix(-1 0 0 1 354.656 261.323)" stroke="#323537" stroke-width="5.02"/><g clip-path="url(#clip2_1321_7992)"><path d="M332 91c0 16.569 13.431 30 30 30 16.569 0 30-13.431 30-30 0-16.569-13.431-30-30-30-16.569 0-30 13.431-30 30z" fill="#68CFBB"/><path d="M345.548 122.764v-14.52a8.347 8.347 0 0 1 8.347-8.347h16.694a8.349 8.349 0 0 1 8.347 8.347v24.541" fill="#fff"/><path fill-rule="evenodd" clip-rule="evenodd" d="M378.265 100.567a10.856 10.856 0 0 0-7.676-3.18h-16.694a10.858 10.858 0 0 0-10.857 10.857v14.52a2.51 2.51 0 1 0 5.02 0v-14.52a5.836 5.836 0 0 1 5.837-5.837h16.694a5.836 5.836 0 0 1 5.836 5.837v24.541a2.51 2.51 0 1 0 5.02 0v-24.541c0-2.879-1.144-5.641-3.18-7.677z" fill="#323537"/><path d="M362.242 91.55a8.347 8.347 0 1 1 0-16.693 8.347 8.347 0 1 1 0 16.694z" fill="#F5D26C"/><path fill-rule="evenodd" clip-rule="evenodd" d="M362.242 77.367a5.837 5.837 0 1 1 0 11.675 5.837 5.837 0 0 1 0-11.675zm10.857 5.837c0-5.996-4.861-10.857-10.857-10.857-5.996 0-10.857 4.861-10.857 10.857 0 5.996 4.861 10.857 10.857 10.857 5.996 0 10.857-4.86 10.857-10.857z" fill="#323537"/></g><rect x="-2.51" y="2.51" width="54.98" height="54.98" rx="27.49" transform="matrix(-1 0 0 1 386.98 61)" stroke="#323537" stroke-width="5.02"/><g clip-path="url(#clip3_1321_7992)"><path d="M1103 472c0 16.569 13.43 30 30 30s30-13.431 30-30c0-16.569-13.43-30-30-30s-30 13.431-30 30z" fill="#9C9BF4"/><path d="M1116.55 503.764v-14.52c0-2.214.88-4.337 2.44-5.902a8.364 8.364 0 0 1 5.91-2.445h16.69c2.21 0 4.34.88 5.9 2.445a8.331 8.331 0 0 1 2.45 5.902v24.541" fill="#fff"/><path fill-rule="evenodd" clip-rule="evenodd" d="M1149.27 481.567a10.87 10.87 0 0 0-7.68-3.18h-16.7c-2.87 0-5.64 1.144-7.67 3.18a10.841 10.841 0 0 0-3.18 7.677v14.52c0 1.387 1.12 2.51 2.51 2.51 1.38 0 2.51-1.123 2.51-2.51v-14.52c0-1.548.61-3.032 1.71-4.127a5.825 5.825 0 0 1 4.12-1.71h16.7c1.55 0 3.03.615 4.13 1.71a5.857 5.857 0 0 1 1.71 4.127v24.541c0 1.387 1.12 2.51 2.51 2.51 1.38 0 2.51-1.123 2.51-2.51v-24.541c0-2.879-1.15-5.641-3.18-7.677z" fill="#323537"/><path d="M1133.24 472.551c-4.61 0-8.34-3.737-8.34-8.347 0-4.61 3.73-8.347 8.34-8.347 4.61 0 8.35 3.737 8.35 8.347 0 4.61-3.74 8.347-8.35 8.347z" fill="#F5D26C"/><path fill-rule="evenodd" clip-rule="evenodd" d="M1133.24 458.367c3.23 0 5.84 2.614 5.84 5.837a5.835 5.835 0 1 1-11.67 0 5.834 5.834 0 0 1 5.83-5.837zm10.86 5.837c0-5.996-4.86-10.857-10.86-10.857-5.99 0-10.85 4.861-10.85 10.857 0 5.996 4.86 10.857 10.85 10.857 6 0 10.86-4.861 10.86-10.857z" fill="#323537"/></g><rect x="-2.51" y="2.51" width="54.98" height="54.98" rx="27.49" transform="matrix(-1 0 0 1 1157.98 442)" stroke="#323537" stroke-width="5.02"/><g clip-path="url(#clip4_1321_7992)"><path d="M240 521c0 16.569 13.431 30 30 30 16.569 0 30-13.431 30-30 0-16.569-13.431-30-30-30-16.569 0-30 13.431-30 30z" fill="#68CFBB"/><path d="M253.548 552.764v-14.52a8.347 8.347 0 0 1 8.347-8.347h16.694a8.349 8.349 0 0 1 8.347 8.347v24.541" fill="#fff"/><path fill-rule="evenodd" clip-rule="evenodd" d="M286.265 530.567a10.856 10.856 0 0 0-7.676-3.18h-16.694a10.858 10.858 0 0 0-10.857 10.857v14.52a2.51 2.51 0 1 0 5.02 0v-14.52a5.836 5.836 0 0 1 5.837-5.837h16.694a5.836 5.836 0 0 1 5.836 5.837v24.541a2.51 2.51 0 1 0 5.02 0v-24.541c0-2.879-1.144-5.641-3.18-7.677z" fill="#323537"/><path d="M270.242 521.551a8.347 8.347 0 1 1 0-16.694 8.347 8.347 0 0 1 0 16.694z" fill="#F5D26C"/><path fill-rule="evenodd" clip-rule="evenodd" d="M270.242 507.367a5.837 5.837 0 1 1 0 11.674 5.837 5.837 0 0 1 0-11.674zm10.857 5.837c0-5.996-4.861-10.857-10.857-10.857-5.996 0-10.857 4.861-10.857 10.857 0 5.996 4.861 10.857 10.857 10.857 5.996 0 10.857-4.861 10.857-10.857z" fill="#323537"/></g><rect x="-2.51" y="2.51" width="54.98" height="54.98" rx="27.49" transform="matrix(-1 0 0 1 294.98 491)" stroke="#323537" stroke-width="5.02"/><g clip-path="url(#clip5_1321_7992)"><path d="M267 43c0 16.569 13.431 30 30 30 16.569 0 30-13.431 30-30 0-16.569-13.431-30-30-30-16.569 0-30 13.431-30 30z" fill="#F5D26C"/><path d="M280.548 74.764v-14.52a8.348 8.348 0 0 1 8.347-8.347h16.694a8.347 8.347 0 0 1 8.347 8.347v24.541" fill="#fff"/><path fill-rule="evenodd" clip-rule="evenodd" d="M313.265 52.567a10.855 10.855 0 0 0-7.676-3.18h-16.694a10.857 10.857 0 0 0-10.857 10.857v14.52a2.51 2.51 0 0 0 5.02 0v-14.52a5.836 5.836 0 0 1 5.837-5.837h16.694a5.837 5.837 0 0 1 5.836 5.837v24.541a2.51 2.51 0 0 0 5.02 0v-24.54c0-2.88-1.144-5.642-3.18-7.678z" fill="#323537"/><path d="M297.242 43.55a8.347 8.347 0 1 1 0-16.693 8.347 8.347 0 1 1 0 16.694z" fill="#68CFBB"/><path fill-rule="evenodd" clip-rule="evenodd" d="M297.242 29.367a5.837 5.837 0 1 1 0 11.675 5.837 5.837 0 0 1 0-11.675zm10.857 5.837c0-5.996-4.861-10.857-10.857-10.857-5.996 0-10.857 4.861-10.857 10.857 0 5.996 4.861 10.857 10.857 10.857 5.996 0 10.857-4.86 10.857-10.857z" fill="#323537"/></g><rect x="-2.51" y="2.51" width="54.98" height="54.98" rx="27.49" transform="matrix(-1 0 0 1 321.98 13)" stroke="#323537" stroke-width="5.02"/><g clip-path="url(#clip6_1321_7992)"><path d="M1042 424c0 16.569 13.43 30 30 30s30-13.431 30-30c0-16.569-13.43-30-30-30s-30 13.431-30 30z" fill="#F5D26C"/><path d="M1055.55 455.764v-14.52c0-2.214.88-4.337 2.44-5.902a8.364 8.364 0 0 1 5.91-2.445h16.69c2.21 0 4.34.88 5.9 2.445a8.331 8.331 0 0 1 2.45 5.902v24.541" fill="#fff"/><path fill-rule="evenodd" clip-rule="evenodd" d="M1088.27 433.567a10.87 10.87 0 0 0-7.68-3.18h-16.7c-2.87 0-5.64 1.144-7.67 3.18a10.841 10.841 0 0 0-3.18 7.677v14.52c0 1.387 1.12 2.51 2.51 2.51 1.38 0 2.51-1.123 2.51-2.51v-14.52c0-1.548.61-3.032 1.71-4.127a5.825 5.825 0 0 1 4.12-1.71h16.7c1.55 0 3.03.615 4.13 1.71a5.857 5.857 0 0 1 1.71 4.127v24.541c0 1.387 1.12 2.51 2.51 2.51 1.38 0 2.51-1.123 2.51-2.51v-24.541c0-2.879-1.15-5.641-3.18-7.677z" fill="#323537"/><path d="M1072.24 424.551c-4.61 0-8.34-3.737-8.34-8.347 0-4.61 3.73-8.347 8.34-8.347 4.61 0 8.35 3.737 8.35 8.347 0 4.61-3.74 8.347-8.35 8.347z" fill="#68CFBB"/><path fill-rule="evenodd" clip-rule="evenodd" d="M1072.24 410.367c3.23 0 5.84 2.614 5.84 5.837a5.835 5.835 0 1 1-11.67 0 5.834 5.834 0 0 1 5.83-5.837zm10.86 5.837c0-5.996-4.86-10.857-10.86-10.857-5.99 0-10.85 4.861-10.85 10.857 0 5.996 4.86 10.857 10.85 10.857 6 0 10.86-4.861 10.86-10.857z" fill="#323537"/></g><rect x="-2.51" y="2.51" width="54.98" height="54.98" rx="27.49" transform="matrix(-1 0 0 1 1096.98 394)" stroke="#323537" stroke-width="5.02"/><g clip-path="url(#clip7_1321_7992)"><path d="M308 557c0 16.569 13.431 30 30 30 16.569 0 30-13.431 30-30 0-16.569-13.431-30-30-30-16.569 0-30 13.431-30 30z" fill="#F5D26C"/><path d="M321.548 588.764v-14.52a8.347 8.347 0 0 1 8.347-8.347h16.694a8.349 8.349 0 0 1 8.347 8.347v24.541" fill="#fff"/><path fill-rule="evenodd" clip-rule="evenodd" d="M354.265 566.567a10.856 10.856 0 0 0-7.676-3.18h-16.694a10.858 10.858 0 0 0-10.857 10.857v14.52a2.51 2.51 0 1 0 5.02 0v-14.52a5.836 5.836 0 0 1 5.837-5.837h16.694a5.836 5.836 0 0 1 5.836 5.837v24.541a2.51 2.51 0 1 0 5.02 0v-24.541c0-2.879-1.144-5.641-3.18-7.677z" fill="#323537"/><path d="M338.242 557.551a8.347 8.347 0 1 1 0-16.694 8.347 8.347 0 0 1 0 16.694z" fill="#68CFBB"/><path fill-rule="evenodd" clip-rule="evenodd" d="M338.242 543.367a5.837 5.837 0 1 1 0 11.674 5.837 5.837 0 0 1 0-11.674zm10.857 5.837c0-5.996-4.861-10.857-10.857-10.857-5.996 0-10.857 4.861-10.857 10.857 0 5.996 4.861 10.857 10.857 10.857 5.996 0 10.857-4.861 10.857-10.857z" fill="#323537"/></g><rect x="-2.51" y="2.51" width="54.98" height="54.98" rx="27.49" transform="matrix(-1 0 0 1 362.98 527)" stroke="#323537" stroke-width="5.02"/><g clip-path="url(#clip8_1321_7992)"><path d="M259 120c0 16.569 13.431 30 30 30 16.569 0 30-13.431 30-30 0-16.569-13.431-30-30-30-16.569 0-30 13.431-30 30z" fill="#9C9BF4"/><path d="M272.548 151.764v-14.52a8.347 8.347 0 0 1 8.347-8.347h16.694a8.349 8.349 0 0 1 8.347 8.347v24.541" fill="#fff"/><path fill-rule="evenodd" clip-rule="evenodd" d="M305.265 129.567a10.856 10.856 0 0 0-7.676-3.18h-16.694a10.858 10.858 0 0 0-10.857 10.857v14.52a2.51 2.51 0 1 0 5.02 0v-14.52a5.836 5.836 0 0 1 5.837-5.837h16.694a5.836 5.836 0 0 1 5.836 5.837v24.541a2.51 2.51 0 1 0 5.02 0v-24.541c0-2.879-1.144-5.641-3.18-7.677z" fill="#323537"/><path d="M289.242 120.551a8.347 8.347 0 1 1 0-16.694 8.347 8.347 0 0 1 0 16.694z" fill="#F5D26C"/><path fill-rule="evenodd" clip-rule="evenodd" d="M289.242 106.367a5.838 5.838 0 1 1-.002 11.676 5.838 5.838 0 0 1 .002-11.676zm10.857 5.837c0-5.996-4.861-10.857-10.857-10.857-5.996 0-10.857 4.861-10.857 10.857 0 5.996 4.861 10.857 10.857 10.857 5.996 0 10.857-4.861 10.857-10.857z" fill="#323537"/></g><rect x="-2.51" y="2.51" width="54.98" height="54.98" rx="27.49" transform="matrix(-1 0 0 1 313.98 90)" stroke="#323537" stroke-width="5.02"/><g clip-path="url(#clip9_1321_7992)"><path d="M1033 503c0 16.569 13.43 30 30 30s30-13.431 30-30c0-16.569-13.43-30-30-30s-30 13.431-30 30z" fill="#68CFBB"/><path d="M1046.55 534.764v-14.52c0-2.214.88-4.337 2.44-5.902a8.364 8.364 0 0 1 5.91-2.445h16.69c2.21 0 4.34.88 5.9 2.445a8.331 8.331 0 0 1 2.45 5.902v24.541" fill="#fff"/><path fill-rule="evenodd" clip-rule="evenodd" d="M1079.27 512.567a10.87 10.87 0 0 0-7.68-3.18h-16.7c-2.87 0-5.64 1.144-7.67 3.18a10.841 10.841 0 0 0-3.18 7.677v14.52c0 1.387 1.12 2.51 2.51 2.51 1.38 0 2.51-1.123 2.51-2.51v-14.52c0-1.548.61-3.032 1.71-4.127a5.825 5.825 0 0 1 4.12-1.71h16.7c1.55 0 3.03.615 4.13 1.71a5.857 5.857 0 0 1 1.71 4.127v24.541c0 1.387 1.12 2.51 2.51 2.51 1.38 0 2.51-1.123 2.51-2.51v-24.541c0-2.879-1.15-5.641-3.18-7.677z" fill="#323537"/><path d="M1063.24 503.551c-4.61 0-8.34-3.737-8.34-8.347 0-4.61 3.73-8.347 8.34-8.347 4.61 0 8.35 3.737 8.35 8.347 0 4.61-3.74 8.347-8.35 8.347z" fill="#F5D26C"/><path fill-rule="evenodd" clip-rule="evenodd" d="M1063.24 489.367c3.23 0 5.84 2.613 5.84 5.837a5.835 5.835 0 1 1-11.67 0 5.833 5.833 0 0 1 5.83-5.837zm10.86 5.837c0-5.996-4.86-10.857-10.86-10.857-5.99 0-10.85 4.861-10.85 10.857 0 5.996 4.86 10.857 10.85 10.857 6 0 10.86-4.861 10.86-10.857z" fill="#323537"/></g><rect x="-2.51" y="2.51" width="54.98" height="54.98" rx="27.49" transform="matrix(-1 0 0 1 1087.98 473)" stroke="#323537" stroke-width="5.02"/><g clip-path="url(#clip10_1321_7992)"><path d="M666.031 65.557c0 21.295 17.263 38.557 38.557 38.557 21.295 0 38.558-17.262 38.558-38.557 0-21.294-17.263-38.557-38.558-38.557-21.294 0-38.557 17.263-38.557 38.557z" fill="#F5D26C"/><path d="M683.445 106.382V87.72a10.727 10.727 0 0 1 10.728-10.728h21.455a10.725 10.725 0 0 1 10.727 10.728v31.541" fill="#fff"/><path fill-rule="evenodd" clip-rule="evenodd" d="M724.988 78.36a13.239 13.239 0 0 0-9.36-3.878h-21.456a13.239 13.239 0 0 0-13.237 13.238v18.662a2.51 2.51 0 0 0 5.02 0V87.72a8.218 8.218 0 0 1 8.217-8.218h21.456a8.216 8.216 0 0 1 8.217 8.218v31.541a2.51 2.51 0 0 0 5.02 0V87.72c0-3.51-1.394-6.878-3.877-9.36z" fill="#323537"/><path d="M704.9 66.265c-5.924 0-10.727-4.803-10.727-10.728 0-5.924 4.803-10.727 10.727-10.727 5.925 0 10.728 4.803 10.728 10.727 0 5.925-4.803 10.728-10.728 10.728z" fill="#7C7BC2"/><path fill-rule="evenodd" clip-rule="evenodd" d="M704.9 47.32a8.218 8.218 0 1 1 0 16.435 8.218 8.218 0 0 1 0-16.435zm13.238 8.217c0-7.31-5.927-13.237-13.238-13.237s-13.238 5.927-13.238 13.237c0 7.311 5.927 13.238 13.238 13.238s13.238-5.927 13.238-13.238z" fill="#323537"/></g><rect x="-2.51" y="2.51" width="72.094" height="72.094" rx="36.047" transform="matrix(-1 0 0 1 738.126 27)" stroke="#323537" stroke-width="5.02"/><g clip-path="url(#clip11_1321_7992)"><path d="M896 254.557c0 21.295 17.262 38.557 38.557 38.557s38.557-17.262 38.557-38.557c0-21.294-17.262-38.557-38.557-38.557S896 233.263 896 254.557z" fill="#68CFBB"/><path d="M913.412 295.382V276.72a10.727 10.727 0 0 1 10.727-10.728h21.456a10.727 10.727 0 0 1 10.727 10.728v31.541" fill="#fff"/><path fill-rule="evenodd" clip-rule="evenodd" d="M954.955 267.36a13.238 13.238 0 0 0-9.361-3.878h-21.455a13.234 13.234 0 0 0-9.36 3.878 13.233 13.233 0 0 0-3.877 9.36v18.662a2.51 2.51 0 1 0 5.02 0V276.72a8.218 8.218 0 0 1 8.217-8.218h21.455a8.218 8.218 0 0 1 8.218 8.218v31.541a2.51 2.51 0 1 0 5.02 0V276.72c0-3.511-1.395-6.878-3.877-9.36z" fill="#323537"/><path d="M934.867 255.265c-5.925 0-10.728-4.803-10.728-10.727 0-5.925 4.803-10.728 10.728-10.728s10.728 4.803 10.728 10.728c0 5.924-4.803 10.727-10.728 10.727z" fill="#F5D26C"/><path fill-rule="evenodd" clip-rule="evenodd" d="M934.867 236.32a8.217 8.217 0 0 1 0 16.435 8.217 8.217 0 1 1 0-16.435zm13.237 8.218c0-7.311-5.926-13.238-13.237-13.238s-13.238 5.927-13.238 13.238c0 7.31 5.927 13.237 13.238 13.237s13.237-5.927 13.237-13.237z" fill="#323537"/></g><rect x="-2.51" y="2.51" width="72.094" height="72.094" rx="36.047" transform="matrix(-1 0 0 1 968.094 216)" stroke="#323537" stroke-width="5.02"/><g clip-path="url(#clip12_1321_7992)"><path d="M470.33 551.273c0 21.295 17.263 38.557 38.557 38.557 21.295 0 38.557-17.262 38.557-38.557 0-21.294-17.262-38.557-38.557-38.557-21.294 0-38.557 17.263-38.557 38.557z" fill="#68CFBB"/><path d="M487.743 592.098v-18.662a10.724 10.724 0 0 1 10.727-10.727h21.456a10.726 10.726 0 0 1 10.727 10.727v31.541" fill="#7C7BC2"/><path fill-rule="evenodd" clip-rule="evenodd" d="M529.286 564.076a13.237 13.237 0 0 0-9.361-3.877H498.47a13.233 13.233 0 0 0-13.237 13.237v18.662a2.51 2.51 0 1 0 5.02 0v-18.662a8.217 8.217 0 0 1 8.217-8.217h21.455a8.217 8.217 0 0 1 8.218 8.217v31.541a2.51 2.51 0 1 0 5.02 0v-31.541c0-3.511-1.395-6.878-3.877-9.36z" fill="#323537"/><path d="M509.198 551.981c-5.925 0-10.727-4.803-10.727-10.727 0-5.925 4.802-10.728 10.727-10.728 5.925 0 10.728 4.803 10.728 10.728 0 5.924-4.803 10.727-10.728 10.727z" fill="#fff"/><path fill-rule="evenodd" clip-rule="evenodd" d="M509.198 533.036a8.218 8.218 0 1 1 0 16.436 8.218 8.218 0 0 1 0-16.436zm13.238 8.218c0-7.311-5.927-13.238-13.238-13.238s-13.238 5.927-13.238 13.238 5.927 13.237 13.238 13.237 13.238-5.926 13.238-13.237z" fill="#323537"/></g><rect x="-2.51" y="2.51" width="72.094" height="72.094" rx="36.047" transform="matrix(-1 0 0 1 542.424 512.716)" stroke="#323537" stroke-width="5.02"/><path fill-rule="evenodd" clip-rule="evenodd" d="M458.288 154.564a3.104 3.104 0 0 1-3.084 3.123 162.54 162.54 0 0 0-6.009.15 3.103 3.103 0 0 1-.271-6.201 166.41 166.41 0 0 1 6.241-.156 3.104 3.104 0 0 1 3.123 3.084zm6.048.187a3.103 3.103 0 0 1 3.308-2.884c2.077.142 4.152.324 6.222.544a3.103 3.103 0 0 1-.657 6.172 159.767 159.767 0 0 0-5.989-.523 3.104 3.104 0 0 1-2.884-3.309zm-24.409.61a3.105 3.105 0 0 1-2.714 3.45 154.93 154.93 0 0 0-5.949.825 3.104 3.104 0 1 1-.97-6.131c2.052-.325 4.114-.611 6.183-.858a3.105 3.105 0 0 1 3.45 2.714zm42.683 1.333a3.105 3.105 0 0 1 3.616-2.488c2.051.379 4.093.798 6.123 1.256a3.104 3.104 0 0 1-1.366 6.055c-1.951-.44-3.913-.842-5.885-1.207a3.104 3.104 0 0 1-2.488-3.616zm-60.836 1.539a3.103 3.103 0 0 1-2.294 3.742c-1.948.468-3.883.973-5.801 1.516a3.104 3.104 0 0 1-1.691-5.973c2-.566 4.015-1.092 6.044-1.579a3.103 3.103 0 0 1 3.742 2.294zm78.762 2.507a3.104 3.104 0 0 1 3.889-2.036 148.53 148.53 0 0 1 5.933 1.993 3.103 3.103 0 1 1-2.101 5.841 141.452 141.452 0 0 0-5.685-1.91 3.103 3.103 0 0 1-2.036-3.888zm-96.443 2.5a3.103 3.103 0 0 1-1.81 3.998c-1.872.706-3.724 1.45-5.551 2.233a3.105 3.105 0 0 1-2.443-5.707 141.942 141.942 0 0 1 5.805-2.334 3.103 3.103 0 0 1 3.999 1.81zm113.735 3.717a3.103 3.103 0 0 1 4.119-1.515c1.899.878 3.776 1.797 5.629 2.759a3.104 3.104 0 1 1-2.86 5.51 129.022 129.022 0 0 0-5.373-2.634 3.104 3.104 0 0 1-1.515-4.12zm-130.625 3.517a3.103 3.103 0 0 1-1.244 4.209 121.782 121.782 0 0 0-5.173 2.978 3.104 3.104 0 1 1-3.229-5.301 127.721 127.721 0 0 1 5.437-3.13 3.103 3.103 0 0 1 4.209 1.244zm146.93 4.949a3.103 3.103 0 0 1 4.292-.917 124.498 124.498 0 0 1 5.185 3.547 3.104 3.104 0 0 1-3.633 5.032 120.265 120.265 0 0 0-4.927-3.37 3.103 3.103 0 0 1-.917-4.292zm-162.615 4.612a3.104 3.104 0 0 1-.584 4.35 108.142 108.142 0 0 0-4.63 3.74 3.104 3.104 0 1 1-4.033-4.718 113.228 113.228 0 0 1 4.897-3.956 3.104 3.104 0 0 1 4.35.584zm177.507 6.139a3.104 3.104 0 0 1 4.383-.242 115.022 115.022 0 0 1 4.573 4.323 3.103 3.103 0 1 1-4.386 4.392 109.202 109.202 0 0 0-4.328-4.091 3.103 3.103 0 0 1-.242-4.382zm-191.464 5.796a3.104 3.104 0 0 1 .17 4.386 97.96 97.96 0 0 0-3.896 4.476 3.103 3.103 0 1 1-4.805-3.929 103.827 103.827 0 0 1 4.145-4.763 3.104 3.104 0 0 1 4.386-.17zm204.46 7.177a3.104 3.104 0 0 1 4.362.487c.657.822 1.304 1.655 1.939 2.498a3.104 3.104 0 0 1-4.957 3.736c-.6-.796-1.21-1.582-1.831-2.358a3.105 3.105 0 0 1 .487-4.363zm-216.083 7.035a3.104 3.104 0 0 1 .985 4.277 91.524 91.524 0 0 0-2.979 5.118 3.103 3.103 0 1 1-5.463-2.947 98.017 98.017 0 0 1 3.18-5.464 3.102 3.102 0 0 1 4.277-.984zm-13.43 42.276a3.105 3.105 0 0 1-4.34-.659l-16.562-22.493a3.104 3.104 0 0 1 4.998-3.68l13.517 18.356a3.088 3.088 0 0 1 1.614-.135c.472.086.9.275 1.265.54l18.32-13.49a3.104 3.104 0 0 1 3.68 4.998l-22.492 16.563zm4.708-26.124a3.103 3.103 0 0 1 1.788 4.008 93.02 93.02 0 0 0-1.942 5.593 3.104 3.104 0 0 1-5.926-1.85 100.701 100.701 0 0 1 2.071-5.964 3.104 3.104 0 0 1 4.009-1.787zm103.068 153.439a168.12 168.12 0 0 0-3.446 5.006 3.103 3.103 0 1 1-5.177-3.425 174.381 174.381 0 0 1 3.576-5.194 3.103 3.103 0 1 1 5.047 3.613zm-10.963 11.156a3.104 3.104 0 0 1 1.196 4.223 155.568 155.568 0 0 0-2.858 5.357 3.103 3.103 0 0 1-5.533-2.814 164.278 164.278 0 0 1 2.972-5.57 3.104 3.104 0 0 1 4.223-1.196zm14.019-20.375a3.102 3.102 0 0 1-.404-4.37 174.25 174.25 0 0 1 4.115-4.777 3.104 3.104 0 0 1 4.629 4.136 170.12 170.12 0 0 0-3.97 4.607 3.103 3.103 0 0 1-4.37.404zm-22.432 36.923a3.104 3.104 0 0 1 1.695 4.049 141.929 141.929 0 0 0-2.179 5.656 3.103 3.103 0 1 1-5.839-2.105c.714-1.981 1.473-3.95 2.274-5.905a3.104 3.104 0 0 1 4.049-1.695zm34.806-50.773a3.105 3.105 0 0 1 .073-4.389 168.987 168.987 0 0 1 4.61-4.296 3.103 3.103 0 1 1 4.147 4.619 161.049 161.049 0 0 0-4.441 4.139 3.105 3.105 0 0 1-4.389-.073zm-41.097 68.243a3.104 3.104 0 0 1 2.221 3.786 124.977 124.977 0 0 0-1.379 5.876 3.103 3.103 0 1 1-6.076-1.27c.432-2.065.915-4.122 1.448-6.17a3.105 3.105 0 0 1 3.786-2.222zm54.918-80.645a3.105 3.105 0 0 1 .575-4.352 155.126 155.126 0 0 1 5.094-3.741 3.104 3.104 0 0 1 3.571 5.077 148.782 148.782 0 0 0-4.889 3.591 3.103 3.103 0 0 1-4.351-.575zm15.182-10.67a3.104 3.104 0 0 1 1.13-4.241 131.171 131.171 0 0 1 5.562-3.049 3.104 3.104 0 0 1 2.851 5.514 126.605 126.605 0 0 0-5.302 2.906 3.104 3.104 0 0 1-4.241-1.13zm-73.889 109.486a3.104 3.104 0 0 1 2.771 3.404c-.204 2-.355 4-.448 6a3.104 3.104 0 1 1-6.201-.29c.099-2.116.258-4.231.474-6.343a3.105 3.105 0 0 1 3.404-2.771zm90.397-118.006a3.103 3.103 0 0 1 1.767-4.018c.987-.385 1.976-.754 2.966-1.107a3.105 3.105 0 0 1 2.084 5.847c-.933.333-1.866.681-2.799 1.044a3.104 3.104 0 0 1-4.018-1.766zM409.97 457.654a3.105 3.105 0 0 1 3.315 2.878c.141 1.993.342 3.982.605 5.966a3.103 3.103 0 1 1-6.153.817c-.28-2.112-.494-4.228-.644-6.346a3.104 3.104 0 0 1 2.877-3.315zm2.448 18.386a3.105 3.105 0 0 1 3.796 2.205 92.671 92.671 0 0 0 1.724 5.744 3.103 3.103 0 0 1-5.884 1.977 98.749 98.749 0 0 1-1.84-6.13 3.104 3.104 0 0 1 2.204-3.796zm5.902 17.578a3.102 3.102 0 0 1 4.148 1.432 94.996 94.996 0 0 0 2.794 5.306 3.103 3.103 0 1 1-5.399 3.063 101.343 101.343 0 0 1-2.976-5.653 3.102 3.102 0 0 1 1.433-4.148zm28.597 34.614a3.103 3.103 0 0 1-2.98 3.222l-27.912 1.085a3.104 3.104 0 0 1-.241-6.202l22.737-.885c.126-.52.389-1.015.79-1.426a3.09 3.09 0 0 1 1.201-.767l-.882-22.697a3.103 3.103 0 1 1 6.202-.242l1.085 27.912zm-19.453-18.477a3.103 3.103 0 0 1 4.34.65 105.483 105.483 0 0 0 3.709 4.725 3.105 3.105 0 0 1-4.773 3.969 111.37 111.37 0 0 1-3.926-5.003 3.102 3.102 0 0 1 .65-4.341zm-442.09 57.959a165.6 165.6 0 0 0-3.446 5.007 3.104 3.104 0 0 1-5.177-3.426 173.604 173.604 0 0 1 3.575-5.194 3.103 3.103 0 1 1 5.048 3.613zm-10.963 11.156a3.104 3.104 0 0 1 1.196 4.223 156.965 156.965 0 0 0-2.858 5.357 3.103 3.103 0 0 1-5.533-2.814 162.671 162.671 0 0 1 2.972-5.57 3.104 3.104 0 0 1 4.223-1.196zm14.018-20.375a3.103 3.103 0 0 1-.404-4.37 174.28 174.28 0 0 1 4.116-4.776 3.103 3.103 0 1 1 4.628 4.135 169.764 169.764 0 0 0-3.969 4.607 3.103 3.103 0 0 1-4.37.404zM-34 595.419a3.103 3.103 0 0 1 1.694 4.048 141.007 141.007 0 0 0-2.179 5.656 3.103 3.103 0 1 1-5.84-2.105 147.3 147.3 0 0 1 2.275-5.905 3.103 3.103 0 0 1 4.05-1.694zM.803 544.645a3.104 3.104 0 0 1 .073-4.389 169.708 169.708 0 0 1 4.61-4.296 3.103 3.103 0 1 1 4.146 4.619c-1.5 1.346-2.98 2.726-4.44 4.139a3.104 3.104 0 0 1-4.389-.073zm-41.097 68.244a3.103 3.103 0 0 1 2.221 3.785 124.276 124.276 0 0 0-1.38 5.876 3.103 3.103 0 1 1-6.075-1.27c.431-2.065.915-4.122 1.448-6.17a3.103 3.103 0 0 1 3.786-2.221zm54.918-80.646a3.105 3.105 0 0 1 .575-4.352 154.16 154.16 0 0 1 5.094-3.741 3.104 3.104 0 1 1 3.57 5.077 148.985 148.985 0 0 0-4.888 3.591 3.104 3.104 0 0 1-4.351-.575zm15.182-10.67a3.103 3.103 0 0 1 1.13-4.241 132.616 132.616 0 0 1 5.562-3.049 3.104 3.104 0 0 1 2.85 5.514 126.459 126.459 0 0 0-5.3 2.906 3.104 3.104 0 0 1-4.242-1.13zm-73.889 109.486a3.104 3.104 0 0 1 2.771 3.404c-.205 2-.355 4-.448 6.001a3.104 3.104 0 0 1-6.2-.29c.098-2.117.257-4.232.473-6.343a3.104 3.104 0 0 1 3.404-2.772zm90.397-118.006a3.103 3.103 0 0 1 1.766-4.018c.988-.385 1.977-.754 2.967-1.106a3.103 3.103 0 1 1 2.084 5.846c-.933.333-1.866.681-2.799 1.044a3.103 3.103 0 0 1-4.018-1.766zM-44.94 649.596a3.103 3.103 0 0 1 3.315 2.877 97.41 97.41 0 0 0 .605 5.966 3.104 3.104 0 0 1-6.153.817c-.28-2.112-.494-4.228-.644-6.346a3.102 3.102 0 0 1 2.877-3.314zm2.448 18.386a3.103 3.103 0 0 1 3.796 2.204 92.746 92.746 0 0 0 1.724 5.744 3.103 3.103 0 0 1-5.884 1.977 98.82 98.82 0 0 1-1.84-6.13 3.103 3.103 0 0 1 2.204-3.795zm5.901 17.577a3.104 3.104 0 0 1 4.15 1.432 94.7 94.7 0 0 0 2.793 5.306 3.104 3.104 0 0 1-5.4 3.063 101.34 101.34 0 0 1-2.975-5.653 3.103 3.103 0 0 1 1.433-4.148zm28.598 34.614a3.104 3.104 0 0 1-2.98 3.222l-27.912 1.085a3.103 3.103 0 1 1-.241-6.202l22.736-.884c.127-.521.39-1.015.79-1.427a3.09 3.09 0 0 1 1.202-.767l-.883-22.697a3.103 3.103 0 1 1 6.203-.241l1.085 27.911zm-19.454-18.477a3.104 3.104 0 0 1 4.341.65 105.533 105.533 0 0 0 3.708 4.725 3.104 3.104 0 0 1-4.773 3.969 112.244 112.244 0 0 1-3.926-5.003 3.104 3.104 0 0 1 .65-4.341zM769.03 235.093a164.795 164.795 0 0 0 3.398-4.896 3.103 3.103 0 1 1 5.163 3.445 170.821 170.821 0 0 1-3.525 5.081 3.104 3.104 0 0 1-5.036-3.63zm-2.939 9.023a3.104 3.104 0 0 1 .393 4.372 174.096 174.096 0 0 1-4.047 4.677 3.104 3.104 0 1 1-4.622-4.143 168.268 168.268 0 0 0 3.904-4.512 3.105 3.105 0 0 1 4.372-.394zm13.756-19.838a3.103 3.103 0 0 1-1.176-4.228 154.529 154.529 0 0 0 2.824-5.235 3.103 3.103 0 1 1 5.519 2.841 160.543 160.543 0 0 1-2.938 5.446 3.103 3.103 0 0 1-4.229 1.176zm-25.909 33.404a3.104 3.104 0 0 1-.072 4.389 171.007 171.007 0 0 1-4.526 4.224 3.103 3.103 0 1 1-4.152-4.613 165.016 165.016 0 0 0 4.362-4.072 3.104 3.104 0 0 1 4.388.072zm34.246-49.594a3.104 3.104 0 0 1-1.674-4.058 137.657 137.657 0 0 0 2.163-5.527 3.104 3.104 0 1 1 5.828 2.137 144.614 144.614 0 0 1-2.26 5.774 3.103 3.103 0 0 1-4.057 1.674zm-47.78 61.782a3.103 3.103 0 0 1-.557 4.354 158.514 158.514 0 0 1-4.979 3.698 3.105 3.105 0 0 1-3.602-5.056 152.707 152.707 0 0 0 4.784-3.552 3.103 3.103 0 0 1 4.354.556zm54.048-78.877a3.105 3.105 0 0 1-2.2-3.798c.509-1.912.972-3.831 1.386-5.754a3.104 3.104 0 0 1 6.068 1.305c-.435 2.024-.921 4.04-1.456 6.047a3.104 3.104 0 0 1-3.798 2.2zm-68.877 89.446a3.104 3.104 0 0 1-1.084 4.253 138.607 138.607 0 0 1-5.421 3.058 3.104 3.104 0 0 1-2.926-5.474 133.164 133.164 0 0 0 5.178-2.921 3.102 3.102 0 0 1 4.253 1.084zm72.707-107.243a3.104 3.104 0 0 1-2.749-3.422c.214-1.958.374-3.919.479-5.88a3.104 3.104 0 1 1 6.199.333 114.624 114.624 0 0 1-.507 6.22 3.104 3.104 0 0 1-3.422 2.749zm-88.756 115.822a3.104 3.104 0 0 1-1.68 4.055 113.885 113.885 0 0 1-5.846 2.238 3.104 3.104 0 0 1-2.058-5.856 108.09 108.09 0 0 0 5.529-2.117 3.103 3.103 0 0 1 4.055 1.68zm89.734-133.995a3.104 3.104 0 0 1-3.291-2.904 96.896 96.896 0 0 0-.544-5.859 3.104 3.104 0 0 1 6.16-.762c.257 2.075.45 4.154.579 6.234a3.103 3.103 0 0 1-2.904 3.291zm-106.926 140.03a3.103 3.103 0 0 1-2.369 3.694 90.84 90.84 0 0 1-6.168 1.129 3.104 3.104 0 0 1-.903-6.141 84.384 84.384 0 0 0 5.746-1.052 3.103 3.103 0 0 1 3.694 2.37zm104.699-158.086a3.105 3.105 0 0 1-3.772-2.246 92.017 92.017 0 0 0-1.625-5.65 3.103 3.103 0 1 1 5.908-1.905 98.54 98.54 0 0 1 1.734 6.03 3.103 3.103 0 0 1-2.245 3.771zM674.329 297.682a3.104 3.104 0 0 1-3.14 3.067 73.446 73.446 0 0 1-3.153-.104 3.104 3.104 0 1 1 .34-6.198c.957.052 1.92.084 2.886.095a3.104 3.104 0 0 1 3.067 3.14zm117.134-178.036a3.105 3.105 0 0 1-4.128-1.493 94.479 94.479 0 0 0-2.657-5.242 3.104 3.104 0 0 1 5.448-2.975c1.01 1.848 1.952 3.71 2.83 5.583a3.103 3.103 0 0 1-1.493 4.127zm-27.501-34.54a3.103 3.103 0 0 1 3.053-3.154l27.929-.451a3.103 3.103 0 1 1 .1 6.206l-22.795.368a3.102 3.102 0 0 1-1.997 2.1l.368 22.759a3.105 3.105 0 0 1-6.207.1l-.451-27.929zm18.782 18.541a3.103 3.103 0 0 1-4.328-.73 105.16 105.16 0 0 0-3.521-4.67 3.104 3.104 0 0 1 4.853-3.87 112.647 112.647 0 0 1 3.726 4.942 3.102 3.102 0 0 1-.73 4.328zM765.52 412.254a3.104 3.104 0 0 1-3.146 3.061c-2.1-.029-4.194-.095-6.282-.198a3.103 3.103 0 1 1 .306-6.199c2.014.099 4.035.162 6.061.19a3.104 3.104 0 0 1 3.061 3.146zm6.139-.132a3.102 3.102 0 0 1 2.922-3.274c2.017-.115 4.033-.266 6.047-.453a3.104 3.104 0 0 1 .573 6.181c-2.088.194-4.178.35-6.267.469a3.103 3.103 0 0 1-3.275-2.923zm-24.633-.777a3.103 3.103 0 0 1-3.456 2.706 171.103 171.103 0 0 1-6.227-.874 3.103 3.103 0 0 1 .977-6.13c1.986.316 3.986.597 6 .842a3.103 3.103 0 0 1 2.706 3.456zm43.069-.932a3.103 3.103 0 0 1 2.551-3.571 161.61 161.61 0 0 0 5.955-1.107 3.103 3.103 0 1 1 1.248 6.081 168.01 168.01 0 0 1-6.182 1.148 3.104 3.104 0 0 1-3.572-2.551zm-61.353-1.984a3.104 3.104 0 0 1-3.742 2.294 154.51 154.51 0 0 1-6.095-1.592 3.103 3.103 0 1 1 1.692-5.972c1.926.546 3.877 1.055 5.85 1.528a3.104 3.104 0 0 1 2.295 3.742zm79.488-1.742a3.104 3.104 0 0 1 2.124-3.841 149.4 149.4 0 0 0 5.772-1.788 3.103 3.103 0 1 1 1.958 5.89 155.418 155.418 0 0 1-6.013 1.863 3.104 3.104 0 0 1-3.841-2.124zm-97.296-3.31a3.102 3.102 0 0 1-4.005 1.795 131.787 131.787 0 0 1-5.857-2.391 3.103 3.103 0 1 1 2.484-5.688c1.826.797 3.688 1.557 5.582 2.279a3.104 3.104 0 0 1 1.796 4.005zm114.86-2.534a3.103 3.103 0 0 1 1.622-4.078 133.076 133.076 0 0 0 5.48-2.507 3.104 3.104 0 1 1 2.711 5.583 138.722 138.722 0 0 1-5.735 2.625 3.103 3.103 0 0 1-4.078-1.623zm-131.808-4.88a3.103 3.103 0 0 1-4.233 1.161 107.11 107.11 0 0 1-5.44-3.313 3.103 3.103 0 1 1 3.387-5.202 100.188 100.188 0 0 0 5.125 3.121 3.104 3.104 0 0 1 1.161 4.233zm148.453-3.208a3.104 3.104 0 0 1 1.032-4.266 118.437 118.437 0 0 0 5.051-3.26 3.103 3.103 0 1 1 3.499 5.127 124.995 124.995 0 0 1-5.316 3.431 3.103 3.103 0 0 1-4.266-1.032zm-163.951-6.904a3.102 3.102 0 0 1-4.377.324 83.732 83.732 0 0 1-4.686-4.356 3.105 3.105 0 0 1 4.399-4.38 77.745 77.745 0 0 0 4.34 4.035 3.104 3.104 0 0 1 .324 4.377zm179.229-3.53a3.104 3.104 0 0 1 .348-4.375 107.194 107.194 0 0 0 4.454-4.019 3.103 3.103 0 1 1 4.287 4.489 113.34 113.34 0 0 1-4.713 4.253 3.105 3.105 0 0 1-4.376-.348zm-192.255-9.596a3.103 3.103 0 0 1-4.322-.763 68.512 68.512 0 0 1-1.785-2.681 3.104 3.104 0 1 1 5.247-3.317c.52.823 1.062 1.636 1.623 2.439a3.103 3.103 0 0 1-.763 4.322zm205.631-3.181a3.103 3.103 0 0 1-.41-4.37 100.305 100.305 0 0 0 3.683-4.725 3.103 3.103 0 1 1 5.007 3.668 106.94 106.94 0 0 1-3.91 5.017 3.104 3.104 0 0 1-4.37.41zm10.932-14.923a3.104 3.104 0 0 1-1.186-4.226c.97-1.725 1.895-3.492 2.774-5.299a3.103 3.103 0 1 1 5.582 2.713 106.126 106.126 0 0 1-2.944 5.627 3.104 3.104 0 0 1-4.226 1.185zm12.436-43.035a3.103 3.103 0 0 1 4.34.659l16.562 22.492a3.104 3.104 0 0 1-4.998 3.681l-13.495-18.327a3.096 3.096 0 0 1-1.622.145 3.094 3.094 0 0 1-1.304-.561l-18.295 13.472a3.104 3.104 0 0 1-3.68-4.999l22.492-16.562zm-4.338 26.382a3.105 3.105 0 0 1-1.906-3.954c.648-1.853 1.25-3.744 1.807-5.672a3.104 3.104 0 0 1 5.964 1.721 114.391 114.391 0 0 1-1.911 5.998 3.104 3.104 0 0 1-3.954 1.907zM311.95 358.586a3.103 3.103 0 0 1 .463 4.365c-.652.807-1.299 1.605-1.942 2.395a3.103 3.103 0 1 1-4.815-3.917c.638-.785 1.281-1.578 1.93-2.38a3.103 3.103 0 0 1 4.364-.463zm-9.646 11.809a3.102 3.102 0 0 1 .366 4.373 429.091 429.091 0 0 1-3.987 4.653 3.102 3.102 0 0 1-4.378.306 3.102 3.102 0 0 1-.306-4.378 445.368 445.368 0 0 0 3.931-4.588 3.103 3.103 0 0 1 4.374-.366zm-11.981 13.762a3.103 3.103 0 0 1 .137 4.387 241.391 241.391 0 0 1-4.283 4.45 3.104 3.104 0 1 1-4.415-4.363 239.51 239.51 0 0 0 4.174-4.336 3.104 3.104 0 0 1 4.387-.138zm-12.85 12.985a3.105 3.105 0 0 1-.252 4.382 167.263 167.263 0 0 1-4.705 4.041 3.104 3.104 0 0 1-3.955-4.785 159.785 159.785 0 0 0 4.53-3.89 3.104 3.104 0 0 1 4.382.252zm-14.076 11.627a3.103 3.103 0 0 1-.767 4.321c-1.69 1.18-3.411 2.33-5.171 3.454a3.104 3.104 0 0 1-3.341-5.232 144.786 144.786 0 0 0 4.958-3.311 3.102 3.102 0 0 1 4.321.768zm-15.375 9.832a3.103 3.103 0 0 1-1.276 4.199c-1.797.959-3.636 1.9-5.522 2.824a3.103 3.103 0 1 1-2.73-5.575c1.823-.893 3.598-1.8 5.328-2.724a3.103 3.103 0 0 1 4.2 1.276zm-93.635 34.051a3.104 3.104 0 0 1-1.039-4.265l14.512-23.866a3.104 3.104 0 1 1 5.304 3.225l-11.835 19.463a3.1 3.1 0 0 1 .683 2.815l19.467 11.837a3.103 3.103 0 1 1-3.225 5.303l-23.867-14.512zm77.239-25.997a3.105 3.105 0 0 1-1.667 4.061 248.432 248.432 0 0 1-5.713 2.302 3.103 3.103 0 1 1-2.251-5.784 242.22 242.22 0 0 0 5.57-2.246c1.582-.66 3.4.086 4.061 1.667zm-17.005 6.636a3.103 3.103 0 0 1-1.928 3.943 381.886 381.886 0 0 1-5.826 1.945 3.104 3.104 0 0 1-1.918-5.904 362.531 362.531 0 0 0 5.73-1.912 3.103 3.103 0 0 1 3.942 1.928zm-17.393 5.665a3.103 3.103 0 0 1-2.095 3.856 582.345 582.345 0 0 1-5.861 1.699 3.103 3.103 0 1 1-1.698-5.97 555.31 555.31 0 0 0 5.798-1.681 3.103 3.103 0 0 1 3.856 2.096zm-17.526 4.992a3.103 3.103 0 0 1-2.203 3.796 788.94 788.94 0 0 1-5.925 1.552 3.104 3.104 0 1 1-1.552-6.01 828.351 828.351 0 0 0 5.883-1.541 3.104 3.104 0 0 1 3.797 2.203zm84.854-173.232a3.104 3.104 0 0 1-3.635 2.46 967.286 967.286 0 0 1-3.326-.647 3.103 3.103 0 1 1 1.194-6.091c1.086.213 2.189.427 3.307.643a3.103 3.103 0 0 1 2.46 3.635zm-16.475-3.272a3.104 3.104 0 0 1-3.692 2.374 401.446 401.446 0 0 1-6.578-1.485 3.104 3.104 0 0 1 1.421-6.042c2.087.49 4.243.976 6.475 1.461a3.104 3.104 0 0 1 2.374 3.692zm-19.575-4.654a3.104 3.104 0 0 1-3.853 2.103 165.687 165.687 0 0 1-6.516-2.055 3.103 3.103 0 1 1 1.994-5.878c2.014.683 4.101 1.34 6.272 1.978a3.103 3.103 0 0 1 2.103 3.852zm-19.013-6.547a3.103 3.103 0 0 1-4.133 1.478 96.63 96.63 0 0 1-6.153-3.18 3.103 3.103 0 1 1 3.047-5.407 90.743 90.743 0 0 0 5.761 2.976 3.104 3.104 0 0 1 1.478 4.133zm-52.6-44.122a3.104 3.104 0 0 1 3.498-2.651l27.672 3.813a3.104 3.104 0 0 1-.848 6.149l-22.308-3.073a3.084 3.084 0 0 1-.993 1.323 3.09 3.09 0 0 1-1.608.634l-3.076 22.324a3.104 3.104 0 0 1-6.15-.848l3.813-27.671zm35.136 34.191a3.105 3.105 0 0 1-4.356.545 105.243 105.243 0 0 1-5.309-4.422 3.104 3.104 0 0 1 4.124-4.64 98.552 98.552 0 0 0 4.996 4.162 3.104 3.104 0 0 1 .545 4.355zM177 232.966a3.103 3.103 0 0 1-4.385-.185 190.317 190.317 0 0 1-4.525-5.114 3.103 3.103 0 0 1 4.719-4.032 181.394 181.394 0 0 0 4.377 4.946 3.104 3.104 0 0 1-.186 4.385zM41.588 163.81a3.104 3.104 0 0 0-3.635-2.46c-1.124.217-2.232.432-3.326.647a3.103 3.103 0 1 0 1.194 6.091c1.087-.213 2.189-.427 3.307-.643a3.103 3.103 0 0 0 2.46-3.635zm-16.475 3.272a3.104 3.104 0 0 0-3.692-2.374 400.68 400.68 0 0 0-6.577 1.485 3.103 3.103 0 1 0 1.42 6.042c2.087-.49 4.243-.976 6.475-1.461a3.104 3.104 0 0 0 2.374-3.692zm-19.575 4.654a3.104 3.104 0 0 0-3.853-2.103 165.039 165.039 0 0 0-6.515 2.055 3.103 3.103 0 1 0 1.993 5.878c2.014-.683 4.101-1.34 6.272-1.978a3.103 3.103 0 0 0 2.103-3.852zm-19.013 6.547a3.103 3.103 0 0 0-4.133-1.479 97.207 97.207 0 0 0-6.153 3.181 3.103 3.103 0 1 0 3.047 5.407 91.432 91.432 0 0 1 5.76-2.977 3.103 3.103 0 0 0 1.48-4.132zm-52.6 44.122a3.103 3.103 0 0 0 3.499 2.65l27.67-3.812a3.104 3.104 0 0 0-.846-6.149l-22.308 3.073a3.088 3.088 0 0 0-.994-1.323 3.08 3.08 0 0 0-1.608-.634l-3.076-22.324a3.104 3.104 0 0 0-6.15.847l3.814 27.672zm35.136-34.191a3.104 3.104 0 0 0-4.355-.545 104.892 104.892 0 0 0-5.31 4.422 3.103 3.103 0 1 0 4.124 4.64 98.95 98.95 0 0 1 4.996-4.162 3.103 3.103 0 0 0 .545-4.355zm-15.029 13.345a3.104 3.104 0 0 0-4.385.186c-1.495 1.627-3 3.33-4.524 5.114a3.103 3.103 0 1 0 4.719 4.032 182.247 182.247 0 0 1 4.376-4.946 3.104 3.104 0 0 0-.186-4.386zm94.556 253.009a3.102 3.102 0 0 1-3.635 2.46 983.318 983.318 0 0 1-3.326-.646 3.103 3.103 0 1 1 1.194-6.091c1.087.213 2.189.427 3.307.642a3.104 3.104 0 0 1 2.46 3.635zm-16.475-3.271a3.104 3.104 0 0 1-3.692 2.374 400.68 400.68 0 0 1-6.578-1.485 3.104 3.104 0 1 1 1.421-6.042c2.087.49 4.243.976 6.475 1.461a3.104 3.104 0 0 1 2.374 3.692zm-19.575-4.654a3.104 3.104 0 0 1-3.853 2.103 166.722 166.722 0 0 1-6.515-2.055 3.104 3.104 0 1 1 1.993-5.878c2.014.682 4.101 1.34 6.272 1.978a3.103 3.103 0 0 1 2.103 3.852zm-19.013-6.547a3.103 3.103 0 0 1-4.133 1.478 96.675 96.675 0 0 1-6.153-3.18 3.103 3.103 0 1 1 3.047-5.408 90.381 90.381 0 0 0 5.76 2.977 3.104 3.104 0 0 1 1.48 4.133zm-52.6-44.122a3.104 3.104 0 0 1 3.499-2.651l27.67 3.813a3.103 3.103 0 1 1-.847 6.149l-22.307-3.074a3.085 3.085 0 0 1-.994 1.324 3.088 3.088 0 0 1-1.608.634l-3.076 22.324a3.104 3.104 0 1 1-6.15-.848l3.813-27.671zm35.136 34.191a3.104 3.104 0 0 1-4.355.545 104.892 104.892 0 0 1-5.31-4.422 3.104 3.104 0 0 1 4.124-4.64 98.95 98.95 0 0 0 4.996 4.162 3.103 3.103 0 0 1 .545 4.355zm-15.029-13.346a3.103 3.103 0 0 1-4.385-.185c-1.495-1.628-3-3.33-4.524-5.114a3.104 3.104 0 0 1 4.719-4.032 183.774 183.774 0 0 0 4.376 4.946 3.103 3.103 0 0 1-.186 4.385zM154.87 105.116a3.103 3.103 0 0 1-1.636-4.073 87.59 87.59 0 0 1 1.21-2.703 3.104 3.104 0 0 1 5.62 2.636 78.51 78.51 0 0 0-1.121 2.505 3.102 3.102 0 0 1-4.073 1.635zm6.265-12.778a3.104 3.104 0 0 1-.71-4.33 50 50 0 0 1 3.817-4.704 3.103 3.103 0 1 1 4.569 4.2 43.974 43.974 0 0 0-3.345 4.124 3.103 3.103 0 0 1-4.331.71zm11.484-12.537a3.104 3.104 0 0 1 1.002-4.274 47.402 47.402 0 0 1 5.364-2.862 3.104 3.104 0 0 1 2.573 5.649 41.295 41.295 0 0 0-4.665 2.488 3.104 3.104 0 0 1-4.274-1.001zm15.406-7.194a3.104 3.104 0 0 1 2.317-3.728c1.869-.437 3.8-.813 5.793-1.135a3.104 3.104 0 0 1 .99 6.128c-1.867.302-3.656.65-5.372 1.051a3.104 3.104 0 0 1-3.728-2.316zm59.169-5.163a3.104 3.104 0 0 1-.149 4.386l-20.408 19.072a3.104 3.104 0 1 1-4.238-4.535L239.2 70.666a3.107 3.107 0 0 1 .09-2.589l-15.703-16.803a3.103 3.103 0 1 1 4.535-4.239l19.072 20.409zm-42.344 2.331a3.104 3.104 0 0 1 2.891-3.303c1.872-.125 3.793-.22 5.766-.292a3.104 3.104 0 0 1 .224 6.203c-1.917.07-3.776.163-5.578.282a3.104 3.104 0 0 1-3.303-2.89zm17.044-.665a3.103 3.103 0 0 1 3.116-3.091c1.87.007 3.782.029 5.736.061a3.104 3.104 0 0 1-.103 6.207 449.99 449.99 0 0 0-5.658-.061 3.104 3.104 0 0 1-3.091-3.116zm-75.632 450.897a3.103 3.103 0 0 0-.572 4.352c.72.938 1.436 1.85 2.149 2.737a3.104 3.104 0 0 0 4.838-3.889c-.682-.849-1.37-1.725-2.063-2.628a3.105 3.105 0 0 0-4.352-.572zm10.892 13.106a3.102 3.102 0 0 0 .067 4.388 80.412 80.412 0 0 0 5.289 4.713 3.104 3.104 0 0 0 3.914-4.818 74.277 74.277 0 0 1-4.881-4.35 3.104 3.104 0 0 0-4.389.067zm15.944 12.703a3.104 3.104 0 0 0 1.405 4.158 62.132 62.132 0 0 0 6.596 2.799 3.104 3.104 0 0 0 2.098-5.842 56.136 56.136 0 0 1-5.941-2.52 3.104 3.104 0 0 0-4.158 1.405zm48.022 12.085a3.103 3.103 0 0 0 .261-4.381l-18.538-20.894a3.104 3.104 0 0 0-4.643 4.12l14.925 16.822a3.09 3.09 0 0 0-.568 1.597 3.09 3.09 0 0 0 .378 1.7l-16.829 14.932a3.104 3.104 0 0 0 4.12 4.643l20.894-18.539zm-28.844-5.209a3.102 3.102 0 0 0 2.531 3.585c2.234.385 4.533.71 6.908.992a3.104 3.104 0 0 0 .731-6.165c-2.287-.27-4.476-.581-6.585-.944a3.103 3.103 0 0 0-3.585 2.532zm794.318-283.077a3.103 3.103 0 0 1 3.945-1.923 94.72 94.72 0 0 1 3.14 1.143 3.103 3.103 0 0 1-2.226 5.795 90.952 90.952 0 0 0-2.936-1.07 3.103 3.103 0 0 1-1.923-3.945zm14.986 6.063a3.106 3.106 0 0 1 4.21-1.253c1.93 1.05 3.85 2.164 5.75 3.342a3.103 3.103 0 0 1-3.27 5.273c-1.8-1.113-3.61-2.166-5.44-3.155a3.098 3.098 0 0 1-1.25-4.207zm16.47 10.24a3.105 3.105 0 0 1 4.36-.516c1.73 1.363 3.43 2.779 5.1 4.246a3.103 3.103 0 0 1 .28 4.38 3.102 3.102 0 0 1-4.38.282c-1.59-1.394-3.2-2.74-4.84-4.033a3.102 3.102 0 0 1-.52-4.359zm14.56 12.818a3.11 3.11 0 0 1 4.39.175c1.49 1.619 2.95 3.282 4.37 4.986a3.098 3.098 0 0 1-.4 4.371 3.102 3.102 0 0 1-4.37-.399 124.492 124.492 0 0 0-4.16-4.747 3.097 3.097 0 0 1 .17-4.386zm36.23 77.003a3.114 3.114 0 0 1-4.39.245l-20.82-18.618a3.094 3.094 0 0 1-.24-4.382 3.1 3.1 0 0 1 4.38-.245l16.86 15.078a3.1 3.1 0 0 1 3.08-.136l15.12-16.903a3.1 3.1 0 0 1 4.38-.245 3.094 3.094 0 0 1 .24 4.382l-18.61 20.824zm-23.83-62.079a3.11 3.11 0 0 1 4.31.847c1.22 1.831 2.41 3.698 3.55 5.599a3.105 3.105 0 0 1-5.33 3.187 119.132 119.132 0 0 0-3.38-5.326 3.112 3.112 0 0 1 .85-4.307zm9.94 16.659c1.55-.719 3.4-.04 4.12 1.516.92 2.006 1.8 4.041 2.62 6.104a3.108 3.108 0 0 1-1.74 4.029 3.1 3.1 0 0 1-4.03-1.739c-.78-1.956-1.61-3.887-2.49-5.791a3.1 3.1 0 0 1 1.52-4.119zm7.13 18.041a3.108 3.108 0 0 1 3.81 2.183 116.11 116.11 0 0 1 1.55 6.466 3.102 3.102 0 0 1-2.4 3.674 3.11 3.11 0 0 1-3.68-2.402c-.43-2.057-.92-4.096-1.46-6.114a3.103 3.103 0 0 1 2.18-3.807zm-71.995-109.176a3.103 3.103 0 0 0 3.57 2.553c1.082-.18 2.155-.372 3.218-.576a3.104 3.104 0 1 0-1.171-6.096 128.26 128.26 0 0 1-3.064.549 3.103 3.103 0 0 0-2.553 3.57zm15.575-3.212a3.096 3.096 0 0 0 3.87 2.059c2.11-.646 4.18-1.344 6.2-2.093a3.114 3.114 0 0 0 1.83-3.989 3.108 3.108 0 0 0-3.99-1.83c-1.91.706-3.86 1.365-5.85 1.977a3.096 3.096 0 0 0-2.06 3.876zm17.85-6.654a3.107 3.107 0 0 0 4.19 1.318 98.489 98.489 0 0 0 5.71-3.221 3.11 3.11 0 0 0 1.04-4.266 3.112 3.112 0 0 0-4.27-1.035 91.967 91.967 0 0 1-5.35 3.018 3.106 3.106 0 0 0-1.32 4.186zm16.25-9.934a3.106 3.106 0 0 0 4.37.426 88.96 88.96 0 0 0 4.93-4.366 3.107 3.107 0 0 0 .11-4.388 3.106 3.106 0 0 0-4.39-.105c-1.47 1.401-3 2.756-4.59 4.065a3.097 3.097 0 0 0-.43 4.368zm35.98-74.246a3.106 3.106 0 0 0-4.39.064l-19.46 20.037a3.098 3.098 0 0 0 .06 4.389 3.105 3.105 0 0 0 4.39-.064l15.8-16.264a3.11 3.11 0 0 0 3.01-.08l16.3 15.832a3.105 3.105 0 0 0 4.39-.064 3.108 3.108 0 0 0-.07-4.389l-20.03-19.461zm-22.21 61.087a3.11 3.11 0 0 0 4.36-.552 88.118 88.118 0 0 0 3.84-5.359 3.108 3.108 0 0 0-.88-4.3 3.102 3.102 0 0 0-4.3.879 81.844 81.844 0 0 1-3.57 4.977 3.108 3.108 0 0 0 .55 4.355zm10.48-15.902c1.56.72 3.4.043 4.12-1.513.93-1.99 1.77-4.016 2.55-6.074a3.103 3.103 0 1 0-5.81-2.185 81.203 81.203 0 0 1-2.37 5.652 3.107 3.107 0 0 0 1.51 4.12zm8.98-30.183a3.107 3.107 0 0 0-3.53 2.611c-.3 2.038-.67 4.053-1.11 6.043a3.104 3.104 0 0 0 2.36 3.699 3.107 3.107 0 0 0 3.7-2.363c.47-2.13.87-4.285 1.19-6.462a3.101 3.101 0 0 0-2.61-3.528zm67.95-91.845a3.103 3.103 0 0 1 3.57-2.553c1.08.18 2.15.371 3.22.576a3.107 3.107 0 0 1 2.46 3.633 3.1 3.1 0 0 1-3.63 2.463c-1.02-.195-2.04-.378-3.07-.55a3.103 3.103 0 0 1-2.55-3.57zm15.57 3.212a3.107 3.107 0 0 1 3.88-2.06c2.11.646 4.17 1.344 6.19 2.093a3.105 3.105 0 0 1-2.16 5.82c-1.9-.706-3.85-1.366-5.85-1.977a3.104 3.104 0 0 1-2.06-3.876zm17.86 6.653a3.095 3.095 0 0 1 4.18-1.318 95.112 95.112 0 0 1 5.71 3.222 3.101 3.101 0 0 1 1.04 4.265 3.107 3.107 0 0 1-4.27 1.036 91.325 91.325 0 0 0-5.35-3.018 3.094 3.094 0 0 1-1.31-4.187zm16.25 9.934a3.093 3.093 0 0 1 4.36-.426 89.554 89.554 0 0 1 4.94 4.366 3.107 3.107 0 0 1-4.29 4.493c-1.47-1.4-3-2.756-4.59-4.064a3.105 3.105 0 0 1-.42-4.368zm35.97 74.246a3.104 3.104 0 0 1-4.39-.064l-19.46-20.037a3.116 3.116 0 0 1 .06-4.389 3.106 3.106 0 0 1 4.39.064l15.8 16.265a3.06 3.06 0 0 1 1.38-.35c.6-.011 1.16.147 1.63.43l16.3-15.833a3.106 3.106 0 0 1 4.39.064 3.098 3.098 0 0 1-.06 4.389l-20.04 19.461zm-22.2-61.086a3.099 3.099 0 0 1 4.35.552 87.808 87.808 0 0 1 3.84 5.359 3.103 3.103 0 1 1-5.18 3.42 77.715 77.715 0 0 0-3.57-4.977 3.1 3.1 0 0 1 .56-4.354zm10.48 15.901c1.55-.72 3.4-.042 4.12 1.513a88.004 88.004 0 0 1 2.54 6.074 3.103 3.103 0 1 1-5.81 2.185 81.203 81.203 0 0 0-2.37-5.652 3.103 3.103 0 0 1 1.52-4.12zm8.97 30.184a3.097 3.097 0 0 1-3.52-2.612 92.464 92.464 0 0 0-1.12-6.043 3.103 3.103 0 0 1 6.06-1.336c.47 2.131.87 4.286 1.19 6.463a3.094 3.094 0 0 1-2.61 3.528zm-205.71 335.306a3.107 3.107 0 0 1-.11 4.388c-.75.715-1.51 1.423-2.26 2.125a3.108 3.108 0 0 1-4.39-.157 3.115 3.115 0 0 1 .16-4.386c.74-.686 1.47-1.379 2.21-2.078a3.107 3.107 0 0 1 4.39.108zm-11.26 10.362a3.1 3.1 0 0 1-.36 4.374 232.464 232.464 0 0 1-4.78 3.95 3.102 3.102 0 1 1-3.892-4.833 253.99 253.99 0 0 0 4.662-3.852 3.098 3.098 0 0 1 4.37.361zm-14.295 11.517a3.103 3.103 0 0 1-.701 4.332 215.959 215.959 0 0 1-5.081 3.558 3.103 3.103 0 1 1-3.487-5.135 210.815 210.815 0 0 0 4.936-3.457 3.104 3.104 0 0 1 4.333.702zm-15.185 10.309a3.104 3.104 0 0 1-1.085 4.253 191.271 191.271 0 0 1-5.396 3.086 3.103 3.103 0 0 1-2.993-5.438 185.565 185.565 0 0 0 5.221-2.986 3.104 3.104 0 0 1 4.253 1.085zm-16.078 8.846c.72 1.556.043 3.4-1.512 4.121a170.007 170.007 0 0 1-5.7 2.514 3.104 3.104 0 0 1-2.4-5.725 161.426 161.426 0 0 0 5.491-2.422 3.105 3.105 0 0 1 4.121 1.512zm-16.925 7.091a3.103 3.103 0 0 1-1.974 3.92 152.82 152.82 0 0 1-5.969 1.835 3.103 3.103 0 1 1-1.701-5.969 147.082 147.082 0 0 0 5.725-1.761 3.103 3.103 0 0 1 3.919 1.975zm-62.692 9.339a3.104 3.104 0 0 1 .458-4.366l21.704-17.583a3.103 3.103 0 0 1 3.908 4.823l-17.71 14.347c.162.421.233.884.194 1.363a3.086 3.086 0 0 1-.516 1.477l14.369 17.735a3.104 3.104 0 0 1-4.824 3.908l-17.583-21.704zm45.047-4.31a3.103 3.103 0 0 1-2.455 3.638 140.74 140.74 0 0 1-6.166 1.057 3.104 3.104 0 0 1-.912-6.14c1.97-.293 3.935-.629 5.895-1.01a3.103 3.103 0 0 1 3.638 2.455zm-18.148 2.697a3.104 3.104 0 0 1-2.924 3.274c-2.08.118-4.166.188-6.257.209a3.103 3.103 0 1 1-.064-6.206c1.995-.021 3.985-.088 5.971-.2a3.104 3.104 0 0 1 3.274 2.923zm230.036-126.592a3.107 3.107 0 0 0 4.14 1.466c.93-.446 1.87-.896 2.79-1.35a3.106 3.106 0 0 0 1.42-4.153 3.099 3.099 0 0 0-4.15-1.42c-.91.444-1.82.884-2.73 1.32a3.1 3.1 0 0 0-1.47 4.137zm13.7-6.812a3.097 3.097 0 0 0 4.21 1.225c1.82-1.001 3.62-2.019 5.4-3.053a3.107 3.107 0 0 0 1.12-4.244 3.099 3.099 0 0 0-4.24-1.12 256.905 256.905 0 0 1-5.27 2.977 3.1 3.1 0 0 0-1.22 4.215zm15.86-9.242a3.108 3.108 0 0 0 4.3.893c1.74-1.141 3.45-2.3 5.14-3.476a3.11 3.11 0 0 0 .77-4.321 3.113 3.113 0 0 0-4.33-.77c-1.63 1.142-3.3 2.268-4.99 3.377a3.105 3.105 0 0 0-.89 4.297zm15.05-10.503a3.104 3.104 0 0 0 4.36.505c1.64-1.293 3.24-2.606 4.81-3.938a3.11 3.11 0 0 0 .37-4.374 3.112 3.112 0 0 0-4.38-.364 182.91 182.91 0 0 1-4.65 3.811 3.103 3.103 0 0 0-.51 4.36zm14.01-11.86a3.104 3.104 0 0 0 4.39.059 180.81 180.81 0 0 0 4.38-4.426 3.107 3.107 0 0 0-.1-4.388 3.105 3.105 0 0 0-4.39.102 172.971 172.971 0 0 1-4.22 4.265 3.097 3.097 0 0 0-.06 4.388zm12.66-13.276a3.109 3.109 0 0 0 4.37-.445c1.32-1.619 2.6-3.259 3.85-4.92a3.114 3.114 0 0 0-.63-4.345 3.098 3.098 0 0 0-4.34.624c-1.2 1.593-2.43 3.166-3.69 4.719a3.105 3.105 0 0 0 .44 4.367zm31.11-55.225a3.103 3.103 0 0 0-4.24-1.131l-24.17 13.995a3.096 3.096 0 0 0-1.13 4.241c.85 1.483 2.75 1.989 4.24 1.131l19.72-11.42c.34.301.74.534 1.21.668.52.154 1.06.161 1.56.046l11.43 19.753a3.112 3.112 0 0 0 4.25 1.131 3.105 3.105 0 0 0 1.13-4.241l-14-24.173zm-20.11 40.538a3.11 3.11 0 0 0 4.28-.994 156.95 156.95 0 0 0 3.19-5.383 3.1 3.1 0 0 0-1.19-4.226 3.097 3.097 0 0 0-4.22 1.182c-.98 1.736-2 3.451-3.05 5.146a3.103 3.103 0 0 0 .99 4.275zm9-15.989c1.57.702 3.4.002 4.1-1.562.86-1.901 1.67-3.824 2.43-5.769a3.099 3.099 0 0 0-1.75-4.026 3.099 3.099 0 0 0-4.02 1.749 132.76 132.76 0 0 1-2.32 5.506c-.7 1.564 0 3.401 1.56 4.102z" fill="#9C9BF4"/><path d="M609.839 349.965h-22.003c-4.468 0-8.145 3.62-8.088 8.088v22.003a8.087 8.087 0 0 0 8.088 8.088h1.403a10.97 10.97 0 0 0 9.57 5.6 10.97 10.97 0 0 0 9.57-5.6h1.46a8.087 8.087 0 0 0 8.088-8.088v-22.003a8.087 8.087 0 0 0-8.088-8.088z" fill="#BCBCBD"/><path fill-rule="evenodd" clip-rule="evenodd" d="M587.836 344.965h22.003c7.23 0 13.088 5.858 13.088 13.088v22.003c0 6.839-5.242 12.451-11.929 13.038a15.944 15.944 0 0 1-12.189 5.65 15.943 15.943 0 0 1-12.194-5.656c-6.657-.615-11.867-6.214-11.867-13.032v-21.975c-.073-7.32 5.928-13.116 13.088-13.116zm-8.088 13.088c-.057-4.468 3.62-8.088 8.088-8.088h22.003a8.087 8.087 0 0 1 8.088 8.088v22.003a8.087 8.087 0 0 1-8.088 8.088h-1.46a10.97 10.97 0 0 1-9.57 5.6 10.97 10.97 0 0 1-9.57-5.6h-1.403a8.087 8.087 0 0 1-8.088-8.088v-22.003z" fill="#323537"/><path d="M612.724 351.28a2.533 2.533 0 0 0 2.545-2.319c.396-4.864 2.489-13.137 13.914-25.807 10.691-8.428 17.761-21.211 18.609-35.691.114-1.357.17-2.262.17-2.828v-.113-.453c-.339-27.037-22.229-48.757-49.209-48.757-26.981 0-48.87 21.721-49.153 48.644 0 0-.057 1.358.17 3.62a49.054 49.054 0 0 0 18.609 35.522c11.425 12.726 13.688 20.999 14.084 25.863a2.533 2.533 0 0 0 2.545 2.319h27.716z" fill="#F5D26C"/><path fill-rule="evenodd" clip-rule="evenodd" d="M547.1 283.901c.313-28.279 23.31-51.089 51.653-51.089 28.357 0 51.353 22.83 51.709 51.226v.597c0 .679-.065 1.672-.176 3.005-.895 15.127-8.254 28.492-19.385 37.343-11.012 12.259-12.799 19.987-13.14 24.181l-.001.014a5.034 5.034 0 0 1-5.036 4.602h-27.716a5.033 5.033 0 0 1-5.036-4.602l-.001-.014c-.339-4.169-2.276-11.9-13.312-24.239a51.554 51.554 0 0 1-19.381-37.146 37.006 37.006 0 0 1-.177-2.804 23.48 23.48 0 0 1-.002-1.022l.001-.052zm4.998.159l-.001.025a18.142 18.142 0 0 0 .002.776c.013.564.052 1.405.158 2.466l.005.046.003.046a46.556 46.556 0 0 0 17.661 33.715l.169.133.144.16c11.683 13.014 14.261 21.778 14.715 27.32a.041.041 0 0 0 .007.021l.002.002a.022.022 0 0 0 .008.005.097.097 0 0 0 .037.005h27.716a.097.097 0 0 0 .037-.005l.008-.005.005-.007c.001-.002.003-.006.004-.016.451-5.517 2.841-14.285 14.549-27.267l.142-.158.167-.131c10.147-8 16.855-20.13 17.661-33.874l.002-.031.002-.03c.114-1.366.161-2.174.161-2.621v-.548c-.33-25.671-21.111-46.275-46.709-46.275-25.608 0-46.385 20.615-46.653 46.171l-.001.038-.001.034v.005z" fill="#323537"/><path d="M598.81 284.522c9.163 0 16.629 7.41 16.742 16.573v.452c0 .17 0 .396-.056.736-.283 4.751-2.602 9.219-6.335 12.16l-.396.283-.339.34c-6.222 6.9-7.523 17.337-7.75 26.952H597c-.283-9.615-1.64-20.052-7.862-26.952l-.34-.34-.396-.283c-3.733-2.941-6.052-7.353-6.335-12.274 0-.226-.056-.396-.056-.509v-.509c.17-9.163 7.692-16.629 16.799-16.629zm0-5.657c-12.274 0-22.286 9.899-22.399 22.173 0 0 0 .622.057 1.64.396 6.562 3.62 12.331 8.484 16.177 6.788 7.58 6.448 28.876 6.448 28.876h14.933s-.453-21.296 6.391-28.819a22.422 22.422 0 0 0 8.485-16.29c.056-.622.056-1.018.056-1.301v-.226c-.169-12.331-10.124-22.23-22.455-22.23z" fill="#D9A936"/><path d="M618.414 365.703a2.828 2.828 0 1 0-.975-5.571l-38.123 6.674a2.828 2.828 0 1 0 .975 5.572l38.123-6.675zm-.28 12.161a2.828 2.828 0 0 0-.98-5.571l-37.614 6.618a2.828 2.828 0 1 0 .98 5.571l37.614-6.618z" fill="#DFE0E0"/><path d="M119.811 200.864h-16.047c-3.258 0-5.94 2.64-5.898 5.898v16.047a5.897 5.897 0 0 0 5.898 5.898h1.024a7.998 7.998 0 0 0 6.979 4.084 8 8 0 0 0 6.979-4.084h1.065a5.897 5.897 0 0 0 5.898-5.898v-16.047a5.897 5.897 0 0 0-5.898-5.898z" fill="#BCBCBD"/><path fill-rule="evenodd" clip-rule="evenodd" d="M103.764 195.864h16.047c6.02 0 10.898 4.878 10.898 10.898v16.047c0 5.506-4.081 10.058-9.384 10.794a12.968 12.968 0 0 1-9.558 4.188c-3.787 0-7.192-1.62-9.564-4.195-5.28-.757-9.337-5.297-9.337-10.787v-16.02c-.058-6.11 4.949-10.925 10.898-10.925zm-5.898 10.898c-.041-3.258 2.64-5.898 5.898-5.898h16.047a5.897 5.897 0 0 1 5.898 5.898v16.047a5.897 5.897 0 0 1-5.898 5.898h-1.065a8 8 0 0 1-6.979 4.084 7.998 7.998 0 0 1-6.979-4.084h-1.024a5.897 5.897 0 0 1-5.898-5.898v-16.047z" fill="#323537"/><path d="M121.915 201.823c.99 0 1.773-.742 1.856-1.691.289-3.548 1.815-9.581 10.147-18.821a35.74 35.74 0 0 0 13.572-26.028c.082-.991.123-1.651.123-2.063v-.082-.331c-.247-19.717-16.211-35.557-35.887-35.557-19.677 0-35.64 15.84-35.846 35.475 0 0-.042.99.123 2.64a35.775 35.775 0 0 0 13.572 25.905c8.332 9.281 9.982 15.314 10.27 18.862a1.847 1.847 0 0 0 1.857 1.691h20.213z" fill="#F5D26C"/><path fill-rule="evenodd" clip-rule="evenodd" d="M73.38 152.671c.235-20.991 17.306-37.921 38.346-37.921 21.053 0 38.123 16.949 38.387 38.026v.444c0 .525-.049 1.273-.13 2.24a38.235 38.235 0 0 1-14.347 27.679c-7.918 8.829-9.139 14.317-9.373 17.196l-.002.013a4.346 4.346 0 0 1-4.346 3.975h-20.213a4.347 4.347 0 0 1-4.347-3.975l-.001-.013c-.232-2.854-1.557-8.345-9.5-17.239a38.273 38.273 0 0 1-14.343-27.528 27.915 27.915 0 0 1-.13-2.085 18.095 18.095 0 0 1-.002-.779l.001-.033zm38.346-32.921c-18.304 0-33.155 14.735-33.347 33.001v.039l-.001.032v.015l-.002.096c-.001.091-.002.239.003.436.009.396.036.992.112 1.747l.005.046.002.046a33.276 33.276 0 0 0 12.624 24.099l.17.133.143.16c8.197 9.13 10.361 15.489 10.843 19.723h19.059c.469-4.213 2.507-10.573 10.725-19.686l.142-.158.167-.131a33.244 33.244 0 0 0 12.623-24.212l.002-.03.002-.031c.083-.998.115-1.561.115-1.855v-.396c-.238-18.351-15.093-33.074-33.387-33.074z" fill="#323537"/><path d="M111.768 153.138c6.682 0 12.127 5.403 12.21 12.086v.33c0 .124 0 .289-.042.536a12.262 12.262 0 0 1-4.62 8.869l-.288.206-.248.248c-4.537 5.032-5.486 12.643-5.651 19.656h-2.681c-.207-7.013-1.197-14.624-5.734-19.656l-.248-.248-.288-.206c-2.723-2.145-4.414-5.363-4.62-8.951 0-.165-.042-.289-.042-.372v-.371c.124-6.682 5.61-12.127 12.252-12.127zm0-4.126c-8.952 0-16.253 7.219-16.335 16.171 0 0 0 .453.04 1.196.29 4.785 2.64 8.992 6.188 11.797 4.95 5.528 4.703 21.059 4.703 21.059h10.89s-.33-15.531 4.661-21.017a16.354 16.354 0 0 0 6.188-11.88c.041-.454.041-.743.041-.949v-.165c-.124-8.993-7.384-16.212-16.376-16.212z" fill="#D9A936"/><path d="M126.065 212.342a2.064 2.064 0 0 0-.712-4.064l-27.802 4.868a2.062 2.062 0 1 0 .712 4.063l27.802-4.867zm-.205 8.868a2.061 2.061 0 1 0-.714-4.062l-27.432 4.826a2.062 2.062 0 1 0 .715 4.063l27.431-4.827z" fill="#DFE0E0"/><path d="M825.811 548.864h-16.047c-3.258 0-5.94 2.64-5.898 5.898v16.047a5.897 5.897 0 0 0 5.898 5.898h1.024a7.998 7.998 0 0 0 6.979 4.084 8 8 0 0 0 6.979-4.084h1.065a5.897 5.897 0 0 0 5.898-5.898v-16.047a5.897 5.897 0 0 0-5.898-5.898z" fill="#BCBCBD"/><path fill-rule="evenodd" clip-rule="evenodd" d="M809.764 543.864h16.047c6.02 0 10.898 4.878 10.898 10.898v16.047c0 5.506-4.081 10.058-9.384 10.794a12.968 12.968 0 0 1-9.558 4.188c-3.787 0-7.192-1.62-9.564-4.195-5.28-.757-9.337-5.297-9.337-10.787v-16.02c-.058-6.11 4.949-10.925 10.898-10.925zm-5.898 10.898c-.042-3.258 2.64-5.898 5.898-5.898h16.047a5.897 5.897 0 0 1 5.898 5.898v16.047a5.897 5.897 0 0 1-5.898 5.898h-1.065a8 8 0 0 1-6.979 4.084 7.998 7.998 0 0 1-6.979-4.084h-1.024a5.897 5.897 0 0 1-5.898-5.898v-16.047z" fill="#323537"/><path d="M827.915 549.823c.99 0 1.773-.742 1.856-1.691.289-3.548 1.815-9.581 10.147-18.821a35.74 35.74 0 0 0 13.572-26.028c.082-.991.123-1.651.123-2.063v-.082-.331c-.247-19.717-16.211-35.557-35.887-35.557-19.676 0-35.64 15.84-35.846 35.475 0 0-.042.99.123 2.64a35.773 35.773 0 0 0 13.572 25.905c8.332 9.281 9.982 15.314 10.271 18.862a1.847 1.847 0 0 0 1.856 1.691h20.213z" fill="#F5D26C"/><path fill-rule="evenodd" clip-rule="evenodd" d="M779.38 500.671c.235-20.991 17.306-37.921 38.346-37.921 21.053 0 38.123 16.949 38.387 38.026v.444c0 .525-.049 1.273-.13 2.24a38.235 38.235 0 0 1-14.347 27.679c-7.918 8.829-9.139 14.317-9.373 17.196l-.002.013a4.346 4.346 0 0 1-4.346 3.975h-20.213a4.348 4.348 0 0 1-4.347-3.975l-.001-.013c-.232-2.854-1.557-8.345-9.5-17.239a38.274 38.274 0 0 1-14.343-27.528 28.245 28.245 0 0 1-.131-2.085 16.466 16.466 0 0 1-.001-.779l.001-.033zm38.346-32.921c-18.304 0-33.155 14.735-33.347 33.001v.039l-.001.032v.005l-.001.01-.001.096c-.001.091-.002.239.003.436.009.396.036.992.112 1.747l.004.046.003.046a33.279 33.279 0 0 0 12.624 24.099l.169.133.144.16c8.197 9.13 10.361 15.489 10.843 19.723h19.059c.469-4.213 2.507-10.573 10.725-19.686l.142-.158.167-.131a33.244 33.244 0 0 0 12.623-24.212l.002-.03.002-.031c.083-.998.115-1.561.115-1.855v-.396c-.238-18.351-15.093-33.074-33.387-33.074z" fill="#323537"/><path d="M817.768 501.138c6.682 0 12.127 5.403 12.21 12.086v.33c0 .124 0 .289-.042.536a12.262 12.262 0 0 1-4.62 8.869l-.288.206-.248.248c-4.537 5.032-5.486 12.643-5.651 19.656h-2.681c-.207-7.013-1.197-14.624-5.734-19.656l-.248-.248-.288-.206c-2.723-2.145-4.414-5.363-4.62-8.951 0-.165-.042-.289-.042-.372v-.371c.124-6.682 5.61-12.127 12.252-12.127zm0-4.126c-8.952 0-16.253 7.219-16.335 16.171 0 0 0 .453.041 1.196.289 4.785 2.64 8.992 6.187 11.797 4.95 5.528 4.703 21.059 4.703 21.059h10.89s-.33-15.531 4.661-21.017a16.354 16.354 0 0 0 6.188-11.88c.041-.454.041-.743.041-.949v-.165c-.124-8.993-7.384-16.212-16.376-16.212z" fill="#D9A936"/><path d="M832.065 560.342a2.064 2.064 0 0 0-.712-4.064l-27.802 4.868a2.062 2.062 0 1 0 .712 4.063l27.802-4.867zm-.205 8.868a2.061 2.061 0 1 0-.714-4.062l-27.432 4.826a2.063 2.063 0 0 0 .715 4.063l27.431-4.827z" fill="#DFE0E0"/><path d="M1093.61 94.898h-12.04c-2.44 0-4.45 1.98-4.42 4.424v12.035a4.422 4.422 0 0 0 4.42 4.424h.77a6.007 6.007 0 0 0 10.47 0h.8c2.44 0 4.42-1.98 4.42-4.424V99.322a4.422 4.422 0 0 0-4.42-4.424z" fill="#BCBCBD"/><path fill-rule="evenodd" clip-rule="evenodd" d="M1081.57 89.898h12.04c5.2 0 9.42 4.218 9.42 9.424v12.035a9.42 9.42 0 0 1-7.67 9.262 10.977 10.977 0 0 1-7.78 3.224c-3.05 0-5.8-1.239-7.79-3.231-4.35-.835-7.64-4.661-7.64-9.255v-12.01c-.05-5.294 4.29-9.45 9.42-9.45zm-4.42 9.424c-.03-2.444 1.98-4.424 4.42-4.424h12.04c2.44 0 4.42 1.98 4.42 4.424v12.035a4.422 4.422 0 0 1-4.42 4.424h-.8a6.007 6.007 0 0 1-10.47 0h-.77c-2.44 0-4.42-1.98-4.42-4.424V99.322z" fill="#323537"/><path d="M1095.19 95.617c.74 0 1.33-.557 1.39-1.268.21-2.66 1.36-7.186 7.61-14.116a26.819 26.819 0 0 0 10.18-19.521c.06-.743.09-1.238.09-1.547v-.062-.247c-.19-14.788-12.16-26.669-26.92-26.669-14.75 0-26.73 11.88-26.88 26.607 0 0-.03.742.09 1.98a26.84 26.84 0 0 0 10.18 19.428c6.25 6.961 7.49 11.486 7.7 14.147.07.711.65 1.268 1.4 1.268h15.16z" fill="#F5D26C"/><path fill-rule="evenodd" clip-rule="evenodd" d="M1058.16 58.74c.18-16.082 13.26-29.053 29.38-29.053 16.14 0 29.22 12.99 29.42 29.137v.341c0 .422-.04 1.004-.1 1.724a29.322 29.322 0 0 1-10.95 21.171c-5.84 6.519-6.68 10.5-6.84 12.492v.013a3.882 3.882 0 0 1-3.88 3.552h-15.16c-2.06 0-3.71-1.56-3.89-3.552v-.013c-.16-1.968-1.07-5.951-6.93-12.524a29.344 29.344 0 0 1-10.95-21.051c-.07-.668-.09-1.21-.1-1.6v-.475-.162zm29.38-24.053c-13.38 0-24.24 10.775-24.38 24.133v.443c.01.282.03.713.08 1.262v.046l.01.046a24.311 24.311 0 0 0 9.23 17.622l.17.133.14.16c5.88 6.547 7.71 11.272 8.22 14.585h13.19c.49-3.295 2.24-8.02 8.13-14.558l.14-.157.17-.132a24.283 24.283 0 0 0 9.23-17.704v-.031l.01-.03c.06-.752.08-1.149.08-1.34v-.293c-.18-13.421-11.04-24.184-24.42-24.184z" fill="#323537"/><path d="M1087.58 59.103c5.01 0 9.09 4.053 9.15 9.065v.247c0 .093 0 .217-.03.402a9.183 9.183 0 0 1-3.46 6.652l-.22.155-.19.185c-3.4 3.775-4.11 9.483-4.23 14.742h-2.01c-.16-5.259-.9-10.967-4.3-14.742l-.19-.185-.22-.155c-2.04-1.609-3.31-4.022-3.46-6.713 0-.124-.03-.217-.03-.279V68.2c.09-5.012 4.2-9.096 9.19-9.096zm0-3.094c-6.72 0-12.19 5.414-12.26 12.128 0 0 0 .34.04.897.21 3.589 1.98 6.744 4.64 8.848 3.71 4.146 3.52 15.794 3.52 15.794h8.17s-.25-11.648 3.5-15.763a12.278 12.278 0 0 0 4.64-8.91c.03-.34.03-.557.03-.711v-.124c-.1-6.745-5.54-12.159-12.28-12.159z" fill="#D9A936"/><path d="M1098.3 103.506c.84-.147 1.4-.949 1.26-1.79a1.549 1.549 0 0 0-1.79-1.257l-20.86 3.65c-.84.148-1.4.949-1.25 1.791.14.842.95 1.404 1.79 1.257l20.85-3.651zm-.15 6.652a1.547 1.547 0 1 0-.54-3.047l-20.57 3.619a1.547 1.547 0 0 0 .53 3.047l20.58-3.619z" fill="#DFE0E0"/><path d="M111.609 515.898H99.574c-2.444 0-4.455 1.98-4.424 4.424v12.035a4.423 4.423 0 0 0 4.424 4.424h.767a6.001 6.001 0 0 0 5.235 3.062 6 6 0 0 0 5.234-3.062h.799a4.423 4.423 0 0 0 4.424-4.424v-12.035a4.423 4.423 0 0 0-4.424-4.424z" fill="#BCBCBD"/><path fill-rule="evenodd" clip-rule="evenodd" d="M99.574 510.898h12.035a9.423 9.423 0 0 1 9.424 9.424v12.035c0 4.608-3.307 8.443-7.677 9.262a10.968 10.968 0 0 1-7.78 3.224 10.97 10.97 0 0 1-7.788-3.231c-4.351-.835-7.638-4.661-7.638-9.255v-12.009c-.047-5.295 4.289-9.45 9.424-9.45zm-4.424 9.424c-.031-2.444 1.98-4.424 4.424-4.424h12.035a4.423 4.423 0 0 1 4.424 4.424v12.035a4.423 4.423 0 0 1-4.424 4.424h-.799a6 6 0 0 1-5.234 3.062 6.001 6.001 0 0 1-5.235-3.062h-.767a4.423 4.423 0 0 1-4.424-4.424v-12.035z" fill="#323537"/><path d="M113.186 516.617c.742 0 1.33-.557 1.392-1.268.217-2.661 1.361-7.186 7.611-14.116a26.804 26.804 0 0 0 10.178-19.521c.062-.743.093-1.238.093-1.547v-.062-.247c-.186-14.789-12.158-26.668-26.916-26.668-14.757 0-26.73 11.88-26.884 26.606 0 0-.031.742.093 1.98a26.833 26.833 0 0 0 10.178 19.429c6.25 6.96 7.487 11.485 7.703 14.146.062.711.65 1.268 1.392 1.268h15.16z" fill="#F5D26C"/><path fill-rule="evenodd" clip-rule="evenodd" d="M76.16 479.74c.184-16.082 13.264-29.052 29.384-29.052 16.135 0 29.213 12.989 29.416 29.136v.341c0 .422-.039 1.004-.099 1.724a29.302 29.302 0 0 1-10.953 21.171c-5.836 6.519-6.676 10.499-6.838 12.492l-.001.013a3.886 3.886 0 0 1-3.883 3.552h-15.16a3.886 3.886 0 0 1-3.882-3.552l-.002-.013c-.16-1.968-1.073-5.951-6.933-12.524a29.331 29.331 0 0 1-10.949-21.051 21.543 21.543 0 0 1-.1-1.601 14.42 14.42 0 0 1 0-.614v-.022zm29.384-24.052c-13.384 0-24.244 10.774-24.385 24.132v.039l-.001.029v.007l-.001.061c-.001.062-.001.166.002.307.006.282.026.713.081 1.262l.005.046.003.046a24.33 24.33 0 0 0 9.23 17.622l.17.133.143.16c5.877 6.547 7.713 11.272 8.215 14.585h13.198c.484-3.295 2.233-8.021 8.128-14.558l.142-.157.167-.132a24.305 24.305 0 0 0 9.23-17.704l.002-.031.003-.031c.062-.751.084-1.148.084-1.339v-.293c-.177-13.421-11.041-24.184-24.416-24.184z" fill="#323537"/><path d="M105.575 480.103c5.012 0 9.096 4.053 9.158 9.065v.247c0 .093 0 .217-.031.402a9.2 9.2 0 0 1-3.465 6.652l-.217.155-.185.185c-3.403 3.775-4.115 9.483-4.239 14.742h-2.011c-.154-5.259-.897-10.967-4.3-14.742l-.185-.185-.217-.155c-2.042-1.609-3.31-4.022-3.465-6.713 0-.124-.031-.217-.031-.279v-.278c.093-5.012 4.208-9.096 9.188-9.096zm0-3.094c-6.713 0-12.189 5.414-12.25 12.128 0 0 0 .34.03.897.217 3.589 1.98 6.744 4.64 8.848 3.713 4.146 3.528 15.794 3.528 15.794h8.167s-.247-11.648 3.496-15.763a12.266 12.266 0 0 0 4.641-8.91c.031-.34.031-.557.031-.711v-.124c-.093-6.745-5.538-12.159-12.283-12.159z" fill="#D9A936"/><path d="M116.299 524.506a1.547 1.547 0 0 0-.534-3.047l-20.852 3.65a1.548 1.548 0 0 0 .534 3.048l20.852-3.651zm-.154 6.652a1.548 1.548 0 0 0-.536-3.047l-20.573 3.619a1.547 1.547 0 0 0 .536 3.047l20.573-3.619z" fill="#DFE0E0"/><ellipse cx="248.388" cy="576.565" rx="334.326" ry="166.498" transform="rotate(10.678 248.388 576.565)" fill="#FB7185" fill-opacity=".2" filter="url(#filter0_f_1321_7992)"/><ellipse cx="760.297" cy="576.791" rx="350.884" ry="142.425" fill="#A855F7" fill-opacity=".2" filter="url(#filter1_f_1321_7992)"/><ellipse cx="1069.09" cy="652.509" rx="276.914" ry="239.93" fill="#6366F1" fill-opacity=".2" filter="url(#filter2_f_1321_7992)"/></g><defs><filter id="filter0_f_1321_7992" x="-296.8" y="186.383" width="1090.38" height="780.363" filterUnits="userSpaceOnUse" color-interpolation-filters="sRGB"><feFlood flood-opacity="0" result="BackgroundImageFix"/><feBlend in="SourceGraphic" in2="BackgroundImageFix" result="shape"/><feGaussianBlur stdDeviation="107.592" result="effect1_foregroundBlur_1321_7992"/></filter><filter id="filter1_f_1321_7992" x="194.229" y="219.183" width="1132.13" height="715.217" filterUnits="userSpaceOnUse" color-interpolation-filters="sRGB"><feFlood flood-opacity="0" result="BackgroundImageFix"/><feBlend in="SourceGraphic" in2="BackgroundImageFix" result="shape"/><feGaussianBlur stdDeviation="107.592" result="effect1_foregroundBlur_1321_7992"/></filter><filter id="filter2_f_1321_7992" x="576.988" y="197.396" width="984.196" height="910.227" filterUnits="userSpaceOnUse" color-interpolation-filters="sRGB"><feFlood flood-opacity="0" result="BackgroundImageFix"/><feBlend in="SourceGraphic" in2="BackgroundImageFix" result="shape"/><feGaussianBlur stdDeviation="107.592" result="effect1_foregroundBlur_1321_7992"/></filter><clipPath id="clip0_1321_7992"><path fill="#fff" d="M0 0H1200V620H0z"/></clipPath><clipPath id="clip1_1321_7992"><rect width="77.114" height="77.114" rx="38.557" transform="matrix(-1 0 0 1 359.676 261.323)" fill="#fff"/></clipPath><clipPath id="clip2_1321_7992"><rect width="60" height="60" rx="30" transform="matrix(-1 0 0 1 392 61)" fill="#fff"/></clipPath><clipPath id="clip3_1321_7992"><rect width="60" height="60" rx="30" transform="matrix(-1 0 0 1 1163 442)" fill="#fff"/></clipPath><clipPath id="clip4_1321_7992"><rect width="60" height="60" rx="30" transform="matrix(-1 0 0 1 300 491)" fill="#fff"/></clipPath><clipPath id="clip5_1321_7992"><rect width="60" height="60" rx="30" transform="matrix(-1 0 0 1 327 13)" fill="#fff"/></clipPath><clipPath id="clip6_1321_7992"><rect width="60" height="60" rx="30" transform="matrix(-1 0 0 1 1102 394)" fill="#fff"/></clipPath><clipPath id="clip7_1321_7992"><rect width="60" height="60" rx="30" transform="matrix(-1 0 0 1 368 527)" fill="#fff"/></clipPath><clipPath id="clip8_1321_7992"><rect width="60" height="60" rx="30" transform="matrix(-1 0 0 1 319 90)" fill="#fff"/></clipPath><clipPath id="clip9_1321_7992"><rect width="60" height="60" rx="30" transform="matrix(-1 0 0 1 1093 473)" fill="#fff"/></clipPath><clipPath id="clip10_1321_7992"><rect width="77.114" height="77.114" rx="38.557" transform="matrix(-1 0 0 1 743.146 27)" fill="#fff"/></clipPath><clipPath id="clip11_1321_7992"><rect width="77.114" height="77.114" rx="38.557" transform="matrix(-1 0 0 1 973.114 216)" fill="#fff"/></clipPath><clipPath id="clip12_1321_7992"><rect width="77.114" height="77.114" rx="38.557" transform="matrix(-1 0 0 1 547.444 512.716)" fill="#fff"/></clipPath></defs></svg>