<svg width="1200" height="620" fill="none" xmlns="http://www.w3.org/2000/svg"><g clip-path="url(#clip0_1401_7773)"><path fill="#F1F0EE" d="M0 0H1200V620H0z"/><ellipse cx="164.315" cy="571.582" rx="356.584" ry="177.583" transform="rotate(10.678 164.315 571.582)" fill="#8B5CF6" fill-opacity=".2" filter="url(#filter0_f_1401_7773)"/><ellipse cx="710.304" cy="571.824" rx="374.244" ry="151.907" fill="#3B82F6" fill-opacity=".2" filter="url(#filter1_f_1401_7773)"/><ellipse cx="1039.65" cy="652.582" rx="295.35" ry="255.903" fill="#22D3EE" fill-opacity=".2" filter="url(#filter2_f_1401_7773)"/><rect x="504" y="341" width="212.128" height="232.182" rx="4.193" fill="#7DC9F5"/><rect x="171" y="-52" width="212.128" height="232.182" rx="4.193" fill="#7DC9F5"/><mask id="a" fill="#fff"><rect x="161" y="-62" width="212.128" height="232.182" rx="4.193"/></mask><rect x="161" y="-62" width="212.128" height="232.182" rx="4.193" fill="#4E5052"/><path d="M183.989 1.827a2.674 2.674 0 0 1 2.674-2.674h66.402a2.674 2.674 0 0 1 0 5.348h-66.402a2.674 2.674 0 0 1-2.674-2.674zm82 0a2.674 2.674 0 0 1 2.673-2.674h16.489a2.674 2.674 0 1 1 0 5.348h-16.489a2.674 2.674 0 0 1-2.673-2.674zm32.086 0a2.674 2.674 0 0 1 2.674-2.674h41.445a2.674 2.674 0 1 1 0 5.348h-41.445a2.674 2.674 0 0 1-2.674-2.674z" fill="#808183"/><path d="M183.989 23.218a2.675 2.675 0 0 1 2.674-2.674H249.5a2.674 2.674 0 1 1 0 5.348h-62.837a2.674 2.674 0 0 1-2.674-2.674zm78.434 0a2.674 2.674 0 0 1 2.674-2.674h41.445a2.674 2.674 0 1 1 0 5.348h-41.445a2.674 2.674 0 0 1-2.674-2.674z" fill="#F5907C"/><path d="M319.466 23.218a2.674 2.674 0 0 1 2.674-2.674h20.054a2.674 2.674 0 1 1 0 5.348H322.14a2.674 2.674 0 0 1-2.674-2.674z" fill="#808183"/><path d="M183.989 44.609a2.674 2.674 0 0 1 2.674-2.674h48.576a2.674 2.674 0 1 1 0 5.348h-48.576a2.674 2.674 0 0 1-2.674-2.674z" fill="#F5907C"/><path d="M248.163 44.609a2.674 2.674 0 0 1 2.673-2.674h12.924a2.674 2.674 0 1 1 0 5.348h-12.924a2.674 2.674 0 0 1-2.673-2.674zm-64.174 21.39a2.675 2.675 0 0 1 2.674-2.673h34.315a2.674 2.674 0 1 1 0 5.348h-34.315A2.674 2.674 0 0 1 183.989 66zm49.913 0a2.674 2.674 0 0 1 2.674-2.673h41.445a2.674 2.674 0 1 1 0 5.348h-41.445A2.674 2.674 0 0 1 233.902 66zm57.043 0a2.674 2.674 0 0 1 2.674-2.673h37.88a2.674 2.674 0 0 1 0 5.348h-37.88A2.674 2.674 0 0 1 290.945 66zM183.989 87.392a2.675 2.675 0 0 1 2.674-2.674h66.402a2.674 2.674 0 0 1 0 5.348h-66.402a2.674 2.674 0 0 1-2.674-2.674z" fill="#808183"/><path d="M265.989 87.39a2.674 2.674 0 0 1 2.673-2.673h16.489a2.674 2.674 0 1 1 0 5.348h-16.489a2.674 2.674 0 0 1-2.673-2.674z" fill="#F5D26C"/><path d="M298.075 87.39a2.674 2.674 0 0 1 2.674-2.673h41.445a2.674 2.674 0 1 1 0 5.348h-41.445a2.674 2.674 0 0 1-2.674-2.674zm-114.086 21.392a2.674 2.674 0 0 1 2.674-2.674h66.402a2.674 2.674 0 0 1 0 5.348h-66.402a2.674 2.674 0 0 1-2.674-2.674zm82 0a2.674 2.674 0 0 1 2.673-2.674h48.576a2.674 2.674 0 1 1 0 5.348h-48.576a2.674 2.674 0 0 1-2.673-2.674z" fill="#808183"/><path d="M183.989 130.173a2.674 2.674 0 0 1 2.674-2.674h66.402a2.674 2.674 0 0 1 0 5.348h-66.402a2.674 2.674 0 0 1-2.674-2.674z" fill="#F5D26C"/><path d="M265.989 130.173a2.674 2.674 0 0 1 2.673-2.674h20.055a2.674 2.674 0 1 1 0 5.348h-20.055a2.674 2.674 0 0 1-2.673-2.674z" fill="#808183"/><rect x="161" y="-62" width="212.128" height="232.182" rx="4.193" stroke="#4E5052" stroke-width="8.913" mask="url(#a)"/><g clip-path="url(#clip1_1401_7773)"><rect x="353" y="73" width="71" height="71" rx="35.5" fill="#F5D26C"/><path d="M407.968 162.48v-33.574c0-2.62-1.04-5.132-2.893-6.984a9.873 9.873 0 0 0-6.984-2.893h-19.754a9.874 9.874 0 0 0-9.877 9.877v33.574" fill="#F5907C"/><path d="M407.968 162.48v-33.574c0-2.62-1.04-5.132-2.893-6.984a9.873 9.873 0 0 0-6.984-2.893h-19.754a9.874 9.874 0 0 0-9.877 9.877v33.574" stroke="#4E5052" stroke-width="6" stroke-linecap="round" stroke-linejoin="round"/><path d="M388.214 109.152c5.455 0 9.877-4.422 9.877-9.877 0-5.455-4.422-9.877-9.877-9.877-5.455 0-9.877 4.422-9.877 9.877 0 5.455 4.422 9.877 9.877 9.877z" fill="#A67C19" stroke="#4E5052" stroke-width="6" stroke-linecap="round" stroke-linejoin="round"/></g><rect x="356" y="76" width="65" height="65" rx="32.5" stroke="#4E5052" stroke-width="6"/><rect x="852" y="102" width="212.128" height="232.182" rx="4.193" fill="#7DC9F5"/><mask id="b" fill="#fff"><rect x="842" y="92" width="212.128" height="232.182" rx="4.193"/></mask><rect x="842" y="92" width="212.128" height="232.182" rx="4.193" fill="#4E5052"/><circle cx="858.772" cy="105.977" r="3.494" fill="#F5907C"/><circle cx="872.749" cy="105.977" r="3.494" fill="#F5D26C"/><circle cx="886.726" cy="105.977" r="3.494" fill="#68CFBB"/><path d="M864.99 134.436a2.674 2.674 0 0 1 2.673-2.674h66.402a2.674 2.674 0 1 1 0 5.348h-66.402a2.674 2.674 0 0 1-2.673-2.674z" fill="#9C9BF4"/><path d="M946.989 134.436a2.674 2.674 0 0 1 2.673-2.674h16.489a2.674 2.674 0 1 1 0 5.348h-16.489a2.674 2.674 0 0 1-2.673-2.674zm32.086 0a2.674 2.674 0 0 1 2.674-2.674h41.441c1.48 0 2.68 1.197 2.68 2.674 0 1.477-1.2 2.674-2.68 2.674h-41.441a2.674 2.674 0 0 1-2.674-2.674zM864.99 155.827a2.674 2.674 0 0 1 2.673-2.674h66.402a2.674 2.674 0 1 1 0 5.348h-66.402a2.674 2.674 0 0 1-2.673-2.674z" fill="#808183"/><path d="M946.989 155.827a2.674 2.674 0 0 1 2.673-2.674h16.489a2.674 2.674 0 1 1 0 5.348h-16.489a2.674 2.674 0 0 1-2.673-2.674z" fill="#F5907C"/><path d="M979.075 155.827a2.674 2.674 0 0 1 2.674-2.674h41.441c1.48 0 2.68 1.197 2.68 2.674 0 1.477-1.2 2.674-2.68 2.674h-41.441a2.674 2.674 0 0 1-2.674-2.674z" fill="#808183"/><path d="M864.99 177.218a2.674 2.674 0 0 1 2.673-2.674h48.576a2.674 2.674 0 1 1 0 5.348h-48.576a2.674 2.674 0 0 1-2.673-2.674z" fill="#7DC9F5"/><path d="M929.163 177.218a2.674 2.674 0 0 1 2.674-2.674h12.924a2.674 2.674 0 1 1 0 5.348h-12.924a2.674 2.674 0 0 1-2.674-2.674zm-64.173 21.391a2.674 2.674 0 0 1 2.673-2.674h34.315a2.674 2.674 0 1 1 0 5.348h-34.315a2.674 2.674 0 0 1-2.673-2.674zm49.912 0a2.674 2.674 0 0 1 2.674-2.674h41.445a2.674 2.674 0 1 1 0 5.348h-41.445a2.674 2.674 0 0 1-2.674-2.674zm57.043 0a2.674 2.674 0 0 1 2.674-2.674h37.881c1.48 0 2.67 1.197 2.67 2.674a2.668 2.668 0 0 1-2.67 2.674h-37.881a2.674 2.674 0 0 1-2.674-2.674z" fill="#808183"/><path d="M864.99 220a2.674 2.674 0 0 1 2.673-2.674H930.5a2.674 2.674 0 0 1 0 5.348h-62.837A2.674 2.674 0 0 1 864.99 220zm78.433 0a2.674 2.674 0 0 1 2.674-2.674h41.445a2.674 2.674 0 1 1 0 5.348h-41.445a2.674 2.674 0 0 1-2.674-2.674z" fill="#7DC9F5"/><path d="M1000.47 220a2.668 2.668 0 0 1 2.67-2.674h20.05c1.48 0 2.68 1.197 2.68 2.674 0 1.477-1.2 2.674-2.68 2.674h-20.05a2.668 2.668 0 0 1-2.67-2.674zm-135.48 21.391a2.674 2.674 0 0 1 2.673-2.674H930.5a2.674 2.674 0 0 1 0 5.348h-62.837a2.674 2.674 0 0 1-2.673-2.674z" fill="#808183"/><path d="M943.423 241.391a2.674 2.674 0 0 1 2.674-2.674h41.445a2.674 2.674 0 1 1 0 5.348h-41.445a2.674 2.674 0 0 1-2.674-2.674zm57.047 0a2.668 2.668 0 0 1 2.67-2.674h20.05c1.48 0 2.68 1.197 2.68 2.674 0 1.477-1.2 2.674-2.68 2.674h-20.05a2.668 2.668 0 0 1-2.67-2.674z" fill="#9C9BF4"/><path d="M864.99 262.782a2.674 2.674 0 0 1 2.673-2.674h66.402a2.674 2.674 0 1 1 0 5.348h-66.402a2.674 2.674 0 0 1-2.673-2.674zm81.999 0a2.674 2.674 0 0 1 2.673-2.674h48.576a2.673 2.673 0 0 1 2.672 2.674 2.672 2.672 0 0 1-2.672 2.674h-48.576a2.674 2.674 0 0 1-2.673-2.674z" fill="#808183"/><path d="M864.99 284.173a2.673 2.673 0 0 1 2.673-2.673h66.402a2.674 2.674 0 0 1 0 5.347h-66.402a2.674 2.674 0 0 1-2.673-2.674z" fill="#F5907C"/><path d="M946.989 284.173a2.673 2.673 0 0 1 2.673-2.673h20.055a2.674 2.674 0 0 1 0 5.347h-20.055a2.674 2.674 0 0 1-2.673-2.674z" fill="#808183"/><rect x="842" y="92" width="212.128" height="232.182" rx="4.193" stroke="#4E5052" stroke-width="8.913" mask="url(#b)"/><mask id="c" fill="#fff"><rect x="494" y="331" width="212.128" height="232.182" rx="4.193"/></mask><rect x="494" y="331" width="212.128" height="232.182" rx="4.193" fill="#4E5052"/><circle cx="510.772" cy="344.977" r="3.494" fill="#F5907C"/><circle cx="524.749" cy="344.977" r="3.494" fill="#F5D26C"/><circle cx="538.726" cy="344.977" r="3.494" fill="#68CFBB"/><path d="M516.989 373.436a2.674 2.674 0 0 1 2.674-2.674H582.5a2.673 2.673 0 1 1 0 5.347h-62.837a2.674 2.674 0 0 1-2.674-2.673z" fill="#808183"/><path d="M595.423 373.436a2.674 2.674 0 0 1 2.674-2.674h41.445a2.674 2.674 0 0 1 0 5.347h-41.445a2.674 2.674 0 0 1-2.674-2.673z" fill="#9C9BF4"/><path d="M652.466 373.436a2.674 2.674 0 0 1 2.674-2.674h20.054a2.674 2.674 0 0 1 0 5.347H655.14a2.674 2.674 0 0 1-2.674-2.673zm-135.477 21.391a2.674 2.674 0 0 1 2.674-2.674h66.402a2.675 2.675 0 0 1 0 5.348h-66.402a2.675 2.675 0 0 1-2.674-2.674zm82 0a2.674 2.674 0 0 1 2.673-2.674h16.489a2.674 2.674 0 0 1 0 5.348h-16.489a2.674 2.674 0 0 1-2.673-2.674zm32.086 0a2.674 2.674 0 0 1 2.674-2.674h41.445a2.674 2.674 0 0 1 0 5.348h-41.445a2.674 2.674 0 0 1-2.674-2.674z" fill="#808183"/><path d="M516.989 416.218a2.674 2.674 0 0 1 2.674-2.674h48.576a2.674 2.674 0 1 1 0 5.348h-48.576a2.674 2.674 0 0 1-2.674-2.674z" fill="#68CFBB"/><path d="M581.163 416.218a2.674 2.674 0 0 1 2.673-2.674h12.924a2.674 2.674 0 1 1 0 5.348h-12.924a2.674 2.674 0 0 1-2.673-2.674zm-64.174 21.391a2.674 2.674 0 0 1 2.674-2.674h34.315a2.674 2.674 0 1 1 0 5.348h-34.315a2.674 2.674 0 0 1-2.674-2.674zm49.913 0a2.674 2.674 0 0 1 2.674-2.674h41.445a2.674 2.674 0 1 1 0 5.348h-41.445a2.674 2.674 0 0 1-2.674-2.674zm57.043 0a2.674 2.674 0 0 1 2.674-2.674h37.88a2.674 2.674 0 0 1 0 5.348h-37.88a2.674 2.674 0 0 1-2.674-2.674zM516.989 459a2.674 2.674 0 0 1 2.674-2.674h66.402a2.674 2.674 0 0 1 0 5.348h-66.402a2.674 2.674 0 0 1-2.674-2.674z" fill="#808183"/><path d="M598.989 459a2.674 2.674 0 0 1 2.673-2.674h16.489a2.674 2.674 0 1 1 0 5.348h-16.489a2.674 2.674 0 0 1-2.673-2.674z" fill="#F5907C"/><path d="M631.075 459a2.674 2.674 0 0 1 2.674-2.674h41.445a2.674 2.674 0 1 1 0 5.348h-41.445a2.674 2.674 0 0 1-2.674-2.674z" fill="#808183"/><path d="M516.989 480.391a2.674 2.674 0 0 1 2.674-2.674h66.402a2.674 2.674 0 0 1 0 5.348h-66.402a2.674 2.674 0 0 1-2.674-2.674z" fill="#F5907C"/><path d="M598.989 480.391a2.674 2.674 0 0 1 2.673-2.674h20.055a2.674 2.674 0 1 1 0 5.348h-20.055a2.674 2.674 0 0 1-2.673-2.674zm-82 21.391a2.674 2.674 0 0 1 2.674-2.674h66.402a2.674 2.674 0 0 1 0 5.348h-66.402a2.674 2.674 0 0 1-2.674-2.674zm82 0a2.674 2.674 0 0 1 2.673-2.674h48.576a2.674 2.674 0 1 1 0 5.348h-48.576a2.674 2.674 0 0 1-2.673-2.674z" fill="#808183"/><path d="M516.989 523.173a2.674 2.674 0 0 1 2.674-2.674H582.5a2.674 2.674 0 1 1 0 5.348h-62.837a2.674 2.674 0 0 1-2.674-2.674zm78.434 0a2.674 2.674 0 0 1 2.674-2.674h41.445a2.674 2.674 0 1 1 0 5.348h-41.445a2.674 2.674 0 0 1-2.674-2.674z" fill="#68CFBB"/><path d="M652.466 523.173a2.674 2.674 0 0 1 2.674-2.674h20.054a2.674 2.674 0 1 1 0 5.348H655.14a2.674 2.674 0 0 1-2.674-2.674z" fill="#808183"/><rect x="494" y="331" width="212.128" height="232.182" rx="4.193" stroke="#4E5052" stroke-width="8.913" mask="url(#c)"/><path d="M263 206a2 2 0 1 0-4 0h4zm221.414 243.914a2 2 0 0 0 0-2.828l-12.728-12.728a2 2 0 1 0-2.828 2.828l11.314 11.314-11.314 11.314a2 2 0 1 0 2.828 2.828l12.728-12.728zM259 206v232.5h4V206h-4zm12 244.5h212v-4H271v4zm-12-12c0 6.627 5.373 12 12 12v-4a8 8 0 0 1-8-8h-4z" fill="#2B97D4"/><circle cx="261" cy="199" r="6" stroke="#2B97D4" stroke-width="4"/><path d="M153.414 46.414a2 2 0 0 0 0-2.828l-12.728-12.728a2 2 0 1 0-2.828 2.828L149.172 45l-11.314 11.314a2 2 0 0 0 2.828 2.828l12.728-12.728zM-70 47h222v-4H-70v4zm675 259a2 2 0 1 1-4 0h4zm225.414-111.414a2 2 0 0 1 0 2.828l-12.728 12.728a2 2 0 1 1-2.828-2.828L826.172 196l-11.314-11.314a2 2 0 1 1 2.828-2.828l12.728 12.728zM601 306V206h4v100h-4zm12-112h216v4H613v-4zm-12 12c0-6.627 5.373-12 12-12v4a8 8 0 0 0-8 8h-4z" fill="#2B97D4"/><circle r="6" transform="matrix(1 0 0 -1 603 313.5)" stroke="#2B97D4" stroke-width="4"/><path d="M952 359.5a2 2 0 1 0-4 0h4zm-4 0v289h4v-289h-4z" fill="#2B97D4"/><circle cx="950" cy="352" r="6" stroke="#2B97D4" stroke-width="4"/><path d="M800.278 492.617l-20.306-92.027a2.631 2.631 0 0 0-3.173-1.993l-13.611 3.213-.404.096-.202.048-.101.023-.1.024-.101.024-.1.024-.201.047-.401.095-.2.047-.1.023-.1.024-.1.024-.1.023-.199.047-.397.094-.199.047-.099.023-.099.024-.396.093-.197.047-.098.023-.099.023-.393.093-.197.046-.098.024-.098.023-.391.092-.196.046-.097.023-.098.023-.389.092-.194.046-.098.023-.097.023-.387.091-.097.023-.096.023-.194.046-.385.091-.097.022-.096.023-.192.045-.767.181-.095.023-.096.023-.191.045-.381.09-.38.089-.19.045-.095.023-.094.022-.757.179-1.503.354-22.905 5.408-22.782 5.378-1.495.353-.753.178-.094.022-.094.022-.189.045-.379.089-.379.09-.19.045-.095.022-.095.022-.762.18-.192.046-.095.022-.096.023-.384.09-.192.046-.096.022-.096.023-.386.091-.096.023-.097.023-.193.045-.388.092-.097.023-.097.023-.194.046-.389.091-.098.023-.097.023-.196.047-.391.092-.098.023-.098.023-.196.047-.394.093-.098.023-.099.023-.197.047-.396.093-.198.047-.099.023-.099.024-.1.023-.099.024-.199.047-.399.094-.2.047-.1.023-.1.024-.1.024-.1.023-.201.048-.402.095-13.534 3.195a2.63 2.63 0 0 0-1.966 3.118l20.037 92.09c.233 1.072 1.317 2.298 2.964 2.041 1.925-.3 28.825-4.529 51.014-9.767 22.173-5.235 45.599-12.884 47.323-13.45 1.553-.509 1.963-2.039 1.738-3.061z" fill="#F5D26C" stroke="#4E5052" stroke-width="5" stroke-linejoin="round"/><path d="M693.182 440.851a2.5 2.5 0 0 0 3.3 3.757l-3.3-3.757zm14.178-5.349l.483 2.453-.483-2.453zm15.557 2.59l.325 2.479-.325-2.479zm17.563-9.413l-.853-2.35.853 2.35zm17.492 1.137l.458 2.458-.458-2.458zm13.435-4.406a2.5 2.5 0 0 0-3.114-3.912l3.114 3.912zm-76.575 17.32c1.65 1.878 1.649 1.878 1.649 1.879l.001-.001.011-.009.05-.044c.046-.039.116-.1.21-.178.187-.158.465-.388.817-.67a49.804 49.804 0 0 1 2.86-2.119c2.399-1.643 5.175-3.192 7.413-3.633l-.967-4.906c-3.303.651-6.791 2.716-9.271 4.414a53.97 53.97 0 0 0-4.072 3.088l-.252.215-.069.06-.02.017a.027.027 0 0 1-.006.005l-.002.002-.001.001 1.649 1.879zm13.011-4.775c2.26-.446 4.022.139 6.387 1.033 2.304.872 5.249 2.075 9.012 1.583l-.649-4.958c-2.345.307-4.157-.38-6.594-1.301-2.377-.899-5.34-2.009-9.123-1.263l.967 4.906zm15.399 2.616c2.438-.319 4.294-.893 5.866-1.696 1.555-.796 2.718-1.762 3.754-2.658 1.982-1.714 3.876-3.52 8.471-5.188l-1.706-4.7c-5.5 1.997-7.968 4.319-10.036 6.106-.987.854-1.771 1.482-2.759 1.988-.973.497-2.26.931-4.239 1.19l.649 4.958zm18.091-9.542c2.509-.91 4.505-.506 7.115.215 2.575.71 5.878 1.795 9.982 1.03l-.916-4.915c-2.772.517-4.928-.16-7.736-.935-2.772-.765-6.084-1.571-10.151-.095l1.706 4.7zm17.097 1.245c3.036-.566 6.348-2.386 8.716-3.879a55.509 55.509 0 0 0 3.92-2.721l.245-.189.067-.052.019-.016a.015.015 0 0 0 .006-.004l.002-.002h.001c0-.001.001-.001-1.556-1.957-1.557-1.956-1.556-1.957-1.556-1.957l-.001.001-.011.008-.049.039-.204.158a50.08 50.08 0 0 1-3.55 2.463c-2.303 1.452-4.93 2.813-6.965 3.193l.916 4.915zm-60.571 29.831a2.499 2.499 0 1 0 3.849 3.191l-3.849-3.191zm27.002-4.325l-.312-2.48.312 2.48zm17.159-9.317l.751 2.384-.751-2.384zm18.08 1.359a2.5 2.5 0 0 0 .898-4.919l-.898 4.919zm-60.317 13.879c1.925 1.595 1.924 1.596 1.924 1.596l-.001.001.001-.001.006-.008.036-.042a29.393 29.393 0 0 1 .792-.881 34.317 34.317 0 0 1 2.287-2.226c1.965-1.737 4.283-3.34 6.351-3.828l-1.148-4.866c-3.325.785-6.418 3.094-8.515 4.948a39.407 39.407 0 0 0-2.626 2.555 33.816 33.816 0 0 0-.948 1.058l-.058.067-.017.02-.005.007-.002.002-.001.001 1.924 1.597zm11.396-5.389c1.978-.467 3.569-.04 5.732.673 2.102.692 4.846 1.706 8.262 1.276l-.624-4.961c-2.117.266-3.788-.311-6.074-1.064-2.224-.733-4.995-1.604-8.444-.79l1.148 4.866zm13.994 1.949c4.037-.509 6.574-2.581 8.892-4.428 2.312-1.843 4.669-3.714 8.706-4.986l-1.503-4.769c-4.972 1.567-7.935 3.944-10.319 5.845-2.38 1.897-3.918 3.064-6.4 3.377l.624 4.961zm17.598-9.414c4.149-1.307 8.483-1.576 11.835-1.499 1.664.037 3.058.159 4.029.271a30.292 30.292 0 0 1 1.392.19l.063.011.012.002c.001 0 .001 0 0 0h-.001l.448-2.46.448-2.459h-.002l-.003-.001-.01-.002-.03-.005-.1-.017a37.147 37.147 0 0 0-1.646-.227 49.978 49.978 0 0 0-4.487-.302c-3.66-.083-8.591.198-13.451 1.729l1.503 4.769z" fill="#4E5052"/><path d="M135.379 193.631l3.437-94.178a2.63 2.63 0 0 0-2.572-2.725l-13.981-.305-.415-.01-.208-.004-.103-.002-.104-.002-.103-.002-.103-.003-.206-.004-.412-.01-.206-.004-.102-.002-.103-.002-.102-.002-.103-.003-.205-.004-.408-.009-.204-.004-.102-.003-.101-.002-.407-.009-.202-.004-.102-.002-.101-.002-.404-.01-.202-.004-.1-.002-.101-.002-.402-.009-.201-.004-.1-.002-.1-.003-.4-.008-.2-.005-.1-.002-.099-.002-.398-.009-.1-.002-.099-.002-.199-.005-.396-.008-.099-.002-.098-.002-.198-.005-.787-.017-.099-.002-.098-.002-.196-.004-.391-.009-.391-.008-.195-.005-.097-.002-.098-.002-.777-.017-1.544-.034-23.53-.513-23.402-.51-1.536-.034-.773-.017-.096-.002-.097-.002-.194-.005-.389-.008-.39-.009-.194-.004-.098-.002-.098-.002-.783-.017-.197-.005-.098-.002-.098-.002-.395-.008-.197-.005-.099-.002-.099-.002-.395-.009-.1-.002-.099-.002-.198-.004-.398-.009-.1-.002-.1-.002-.2-.005-.4-.008-.1-.003-.1-.002-.2-.004-.402-.009-.101-.002-.1-.002-.202-.005-.404-.009-.102-.002-.101-.002-.203-.004-.406-.01-.204-.004-.101-.002-.102-.002-.102-.002-.102-.003-.205-.004-.41-.009-.205-.005-.102-.002-.103-.002-.103-.002-.103-.002-.206-.005-.413-.009-13.903-.303a2.63 2.63 0 0 0-2.686 2.525l-3.713 94.171c-.043 1.096.698 2.555 2.357 2.72 1.938.192 29.039 2.849 51.832 3.347 22.778.497 47.374-1.029 49.185-1.144 1.63-.104 2.412-1.482 2.45-2.528z" fill="#F5D26C" stroke="#4E5052" stroke-width="5" stroke-linejoin="round"/><path d="M44.7 116.647a2.5 2.5 0 0 0 2.251 4.465l-2.25-4.465zm15.067-1.62l-.148 2.495.148-2.495zm14.41 6.411l-.309 2.481.308-2.481zm19.362-4.704l-.236-2.489.236 2.489zm16.647 5.49l-.173 2.494.173-2.494zm14.11-.894a2.5 2.5 0 1 0-2.031-4.569l2.031 4.569zm-78.47-2.45l1.125 2.232v.001l.001-.001.013-.007.059-.029.248-.12a48.734 48.734 0 0 1 4.26-1.776c2.734-.989 5.81-1.792 8.087-1.658l.295-4.991c-3.36-.198-7.256.925-10.082 1.946a54.46 54.46 0 0 0-4.717 1.968l-.298.144a4.457 4.457 0 0 0-.112.056l-.003.001v.001c-.001 0-.002 0 1.124 2.233zm13.793-1.358c2.3.136 3.858 1.145 5.923 2.604 2.012 1.421 4.56 3.326 8.326 3.793l.616-4.962c-2.346-.291-3.928-1.411-6.056-2.915-2.075-1.466-4.665-3.283-8.514-3.511l-.295 4.991zm14.25 6.397c2.44.303 4.38.214 6.103-.17 1.706-.379 3.073-1.023 4.301-1.63 2.349-1.162 4.636-2.435 9.502-2.896l-.472-4.978c-5.825.552-8.797 2.18-11.247 3.392-1.17.579-2.086.99-3.17 1.232-1.066.237-2.42.334-4.402.088l-.616 4.962zm19.906-4.696c2.657-.252 4.487.64 6.834 1.992 2.314 1.335 5.239 3.214 9.404 3.503l.346-4.988c-2.813-.195-4.729-1.391-7.253-2.846-2.492-1.437-5.496-3.047-9.803-2.639l.472 4.978zm16.238 5.495c3.08.214 6.743-.717 9.41-1.568a55.048 55.048 0 0 0 4.478-1.65l.284-.121.078-.035.023-.009a.01.01 0 0 1 .007-.003l.002-.002h.001l-1.015-2.285-1.016-2.284h.001l-.002.001-.012.005a1.582 1.582 0 0 0-.057.025l-.238.101a50.49 50.49 0 0 1-4.054 1.494c-2.594.828-5.479 1.486-7.544 1.343l-.346 4.988zm-66.12 13.676a2.501 2.501 0 0 0 2.926 4.055l-2.925-4.055zm27.224 2.59l.32-2.479-.32 2.479zm18.948-4.713l.129 2.496-.129-2.496zm17.161 5.852a2.5 2.5 0 1 0 2.103-4.536l-2.103 4.536zm-61.87-1.701a653.096 653.096 0 0 1 1.462 2.028l-.001.001v-.001a.124.124 0 0 1 .01-.006l.044-.032.2-.137a34.283 34.283 0 0 1 3.56-2.098c2.338-1.188 4.985-2.158 7.109-2.111l.11-4.999c-3.417-.075-6.99 1.384-9.485 2.653a39.391 39.391 0 0 0-4.109 2.422l-.257.178-.073.051a.877.877 0 0 0-.021.015l-.007.005-.003.002v.001l1.461 2.028zm12.384-2.356c2.032.044 3.464.857 5.38 2.089 1.86 1.198 4.262 2.868 7.677 3.308l.64-4.958c-2.115-.274-3.588-1.252-5.612-2.554-1.969-1.267-4.433-2.807-7.976-2.884l-.109 4.999zm13.057 5.397c4.036.522 7.011-.848 9.718-2.054 2.701-1.204 5.452-2.424 9.679-2.642l-.258-4.993c-5.206.269-8.67 1.826-11.456 3.068-2.78 1.239-4.561 1.983-7.043 1.663l-.64 4.958zm19.397-4.696c4.344-.224 8.607.603 11.832 1.518a45 45 0 0 1 3.833 1.274 34.604 34.604 0 0 1 1.299.534l.059.026a.043.043 0 0 1 .01.005h0v-.001l1.05-2.268 1.051-2.268-.001-.001-.003-.002-.009-.004-.028-.012-.092-.042a35.563 35.563 0 0 0-1.538-.632 49.568 49.568 0 0 0-4.266-1.419c-3.523-.999-8.367-1.964-13.455-1.701l.258 4.993z" fill="#4E5052"/><path d="M1120.44 151.48l12.77-93.372a2.63 2.63 0 0 0-2.29-2.967l-13.88-1.69-.41-.051-.21-.025-.1-.013-.11-.012-.1-.013-.1-.012-.21-.025-.4-.05-.21-.025-.1-.012-.1-.013-.1-.012-.11-.012-.2-.025-.4-.05-.21-.024-.1-.012-.1-.013-.4-.049-.2-.024-.1-.013-.1-.012-.41-.049-.2-.024-.1-.012-.1-.012-.39-.05-.2-.023-.1-.012-.1-.013-.4-.048-.2-.024-.1-.012-.1-.012-.39-.048-.1-.012-.1-.012-.2-.024-.39-.048-.1-.012-.1-.012-.19-.024-.78-.095-.1-.012-.1-.012-.19-.024-.39-.047-.39-.047-.19-.024-.1-.012-.1-.011-.77-.094-1.53-.187L1081 49.06l-23.24-2.83-1.53-.185-.76-.094-.1-.011-.1-.012-.19-.024-.38-.047-.39-.047-.19-.023-.1-.012-.1-.012-.78-.095-.19-.023-.1-.012-.1-.012-.39-.048-.19-.024-.1-.012-.1-.012-.39-.048-.1-.012-.1-.012-.2-.024-.39-.048-.1-.012-.1-.012-.2-.024-.4-.048-.09-.012-.1-.013-.2-.024-.4-.048-.1-.013-.1-.012-.2-.024-.4-.05-.1-.011-.11-.013-.2-.024-.4-.05-.2-.024-.1-.012-.1-.012-.11-.013-.1-.012-.2-.025-.41-.05-.2-.024-.1-.013-.1-.012-.11-.012-.1-.013-.2-.025-.41-.05-13.81-1.681a2.629 2.629 0 0 0-2.92 2.246l-13.04 93.339c-.15 1.086.44 2.611 2.08 2.939 1.91.384 28.61 5.717 51.24 8.473 22.62 2.755 47.24 3.677 49.06 3.742 1.63.059 2.54-1.235 2.68-2.272z" fill="#F5D26C" stroke="#4E5052" stroke-width="5" stroke-linejoin="round"/><path d="M1037.85 65.88a2.493 2.493 0 0 0-1.43 3.23 2.496 2.496 0 0 0 3.23 1.435l-1.8-4.666zm15.15-.118l-.39 2.468.39-2.469zm13.71 7.809l-.56 2.438.56-2.438zm19.73-2.76l.01-2.5-.01 2.5zm16.02 7.114l-.42 2.465.42-2.465zm14.13.51a2.501 2.501 0 0 0-1.57-4.748l1.57 4.749zm-77.84-10.223l.9 2.333c0-.001.01-.003.01-.005a.256.256 0 0 0 .06-.023l.26-.095a49.71 49.71 0 0 1 4.42-1.345c2.82-.712 5.96-1.207 8.21-.847l.79-4.937c-3.33-.531-7.31.2-10.23.936-1.5.38-2.82.789-3.77 1.103-.47.157-.85.29-1.12.387-.13.048-.23.087-.31.114-.03.014-.06.025-.08.032a.23.23 0 0 1-.03.01v.002l-.01.002.9 2.333zm13.86.018c2.27.364 3.73 1.522 5.64 3.178 1.86 1.614 4.2 3.762 7.9 4.601l1.11-4.876c-2.31-.523-3.77-1.794-5.74-3.502-1.92-1.664-4.31-3.73-8.12-4.338l-.79 4.937zm13.54 7.779c2.4.544 4.34.647 6.1.436 1.73-.208 3.15-.712 4.44-1.195 2.45-.923 4.85-1.963 9.74-1.94l.02-5c-5.85-.028-8.97 1.298-11.52 2.26-1.23.46-2.18.779-3.28.911-1.09.13-2.44.093-4.39-.348l-1.11 4.876zm20.28-2.698c2.67.013 4.4 1.082 6.6 2.66 2.17 1.558 4.9 3.718 9.01 4.42l.84-4.93c-2.78-.473-4.57-1.854-6.93-3.552-2.34-1.676-5.17-3.577-9.5-3.598l-.02 5zm15.61 7.08c3.05.517 6.78-.045 9.52-.627a54.528 54.528 0 0 0 4.92-1.29c.03-.012.06-.02.08-.027.01-.003.01-.006.02-.008l.01-.002v-.001l-.78-2.374-.79-2.374c0 .001 0 .003-.01.005a.85.85 0 0 1-.06.019c-.05.017-.14.043-.25.077a49.94 49.94 0 0 1-4.18 1.084c-2.66.566-5.6.935-7.64.588l-.84 4.93zm-67.15 7.048a2.507 2.507 0 0 0-.91 3.417 2.506 2.506 0 0 0 3.42.908l-2.51-4.325zm26.83 5.278l.57-2.435-.57 2.435zm19.33-2.81l-.12 2.497.12-2.497zm16.49 7.526c1.19.702 2.72.308 3.43-.88.7-1.19.3-2.723-.89-3.425l-2.54 4.305zm-61.39-7.831l1.25 2.163s0-.002.01-.005c.01-.005.02-.015.05-.027a27.7 27.7 0 0 1 1.04-.553c.73-.364 1.75-.842 2.92-1.298 2.44-.951 5.17-1.653 7.28-1.396l.61-4.963c-3.39-.413-7.09.684-9.7 1.699a38.896 38.896 0 0 0-4.33 2.002c-.12.064-.21.115-.28.151-.03.019-.05.033-.07.044a.186.186 0 0 1-.03.013v.004l-.01.002 1.26 2.164zm12.55-1.116c2.02.246 3.36 1.196 5.15 2.613 1.73 1.376 3.96 3.276 7.31 4.053l1.13-4.87c-2.08-.482-3.45-1.602-5.33-3.099-1.84-1.456-4.13-3.232-7.65-3.66l-.61 4.963zm12.46 6.666c3.96.92 7.06-.148 9.87-1.08 2.81-.93 5.67-1.87 9.9-1.668l.24-4.994c-5.21-.25-8.81.957-11.71 1.916-2.89.957-4.73 1.52-7.17.956l-1.13 4.87zm19.77-2.748c4.34.208 8.5 1.454 11.62 2.684 1.55.611 2.81 1.208 3.69 1.648.43.22.77.4.99.522.11.062.2.108.25.138.02.015.04.026.05.032.01.003.01.005.01.006l1.27-2.153 1.27-2.154v-.002c0-.001-.01-.003-.01-.005-.01-.004-.01-.009-.03-.015-.02-.013-.05-.03-.08-.05-.08-.043-.18-.103-.32-.177-.27-.149-.66-.357-1.15-.606a48.209 48.209 0 0 0-4.11-1.835c-3.4-1.343-8.13-2.784-13.21-3.027l-.24 4.994z" fill="#4E5052"/><g clip-path="url(#clip2_1401_7773)"><rect x="432" y="305" width="71" height="71" rx="35.5" fill="#68CFBB"/><path d="M486.968 394.48v-33.574c0-2.62-1.04-5.132-2.893-6.984a9.873 9.873 0 0 0-6.984-2.893h-19.754a9.874 9.874 0 0 0-9.877 9.877v33.574" fill="#F5D26C"/><path d="M486.968 394.48v-33.574c0-2.62-1.04-5.132-2.893-6.984a9.873 9.873 0 0 0-6.984-2.893h-19.754a9.874 9.874 0 0 0-9.877 9.877v33.574" stroke="#4E5052" stroke-width="6" stroke-linecap="round" stroke-linejoin="round"/><path d="M467.214 341.152c5.455 0 9.877-4.422 9.877-9.877 0-5.455-4.422-9.877-9.877-9.877-5.455 0-9.877 4.422-9.877 9.877 0 5.455 4.422 9.877 9.877 9.877z" fill="#C6EAE3" stroke="#4E5052" stroke-width="6" stroke-linecap="round" stroke-linejoin="round"/></g><rect x="435" y="308" width="65" height="65" rx="32.5" stroke="#4E5052" stroke-width="6"/><g clip-path="url(#clip3_1401_7773)"><rect x="906" y="31" width="71" height="71" rx="35.5" fill="#F5907C"/><path d="M960.969 120.48V86.906a9.878 9.878 0 0 0-9.878-9.877h-19.754a9.879 9.879 0 0 0-9.877 9.877v33.574" fill="#68CFBB"/><path d="M960.969 120.48V86.906a9.878 9.878 0 0 0-9.878-9.877h-19.754a9.879 9.879 0 0 0-9.877 9.877v33.574" stroke="#4E5052" stroke-width="6" stroke-linecap="round" stroke-linejoin="round"/><path d="M941.214 67.152c5.455 0 9.877-4.422 9.877-9.877 0-5.455-4.422-9.877-9.877-9.877-5.455 0-9.877 4.422-9.877 9.877 0 5.455 4.422 9.877 9.877 9.877z" fill="#FACDC4" stroke="#4E5052" stroke-width="6" stroke-linecap="round" stroke-linejoin="round"/></g><rect x="909" y="34" width="65" height="65" rx="32.5" stroke="#4E5052" stroke-width="6"/><path d="M170.485 430.3c-1.03-.91-2.326-1.331-3.602-1.171l-69.164 8.686c-12.28 1.542-20.987 12.716-19.445 24.996l12.288 97.847c.182 1.447.863 2.772 1.893 3.682 1.031.91 2.327 1.331 3.603 1.171l86.587-10.874c1.276-.16 2.427-.889 3.201-2.026.773-1.136 1.106-2.588.924-4.035l-14.391-114.594c-.182-1.448-.863-2.772-1.894-3.682z" fill="#F7F7F5" stroke="#4E5052" stroke-width="5" stroke-linecap="round" stroke-linejoin="round"/><path d="M-19.113 454.11c.773-1.136 1.925-1.865 3.2-2.025l69.165-8.686c12.28-1.542 23.48 7.132 25.022 19.412l12.288 97.847c.182 1.447-.15 2.899-.924 4.036-.774 1.136-1.925 1.865-3.201 2.025L-.151 577.593c-1.276.16-2.571-.261-3.602-1.171-1.03-.91-1.712-2.234-1.893-3.682l-14.392-114.594c-.181-1.447.151-2.899.925-4.036z" fill="#F7F7F5" stroke="#4E5052" stroke-width="5" stroke-linecap="round" stroke-linejoin="round"/><path stroke="#4E5052" stroke-width="5" stroke-linecap="round" d="M102.356 482.78L162.223 475.261"/><path transform="scale(-1 1) rotate(7.158 -3949.77 -258.952)" stroke="#4E5052" stroke-width="5" stroke-linecap="round" d="M2.5 -2.5L57.882 -2.5"/><path stroke="#4E5052" stroke-width="5" stroke-linecap="round" d="M104.422 498.863L159.372 491.962"/><path stroke="#4E5052" stroke-width="5" stroke-linecap="round" d="M48.26 505.625L7.303 510.769"/><path stroke="#4E5052" stroke-width="5" stroke-linecap="round" d="M57.234 520.49L9.28 526.512"/><path stroke="#4E5052" stroke-width="5" stroke-linecap="round" d="M137.261 510.439L106.363 514.32"/><path d="M125.657 509.097l-1.767-7.849a3.474 3.474 0 0 1 .646-2.897l44.292-57.045 10.081-12.983a3.479 3.479 0 0 1 4.882-.614l8.612 6.694a3.479 3.479 0 0 1 .613 4.88l-10.083 12.986-44.438 57.232a3.482 3.482 0 0 1-2.251 1.31l-6.697.965a3.48 3.48 0 0 1-3.89-2.679z" fill="#F5907C"/><path d="M182.933 452.269l10.083-12.986a3.479 3.479 0 0 0-.613-4.88l-8.612-6.694a3.479 3.479 0 0 0-4.882.614l-10.081 12.983m14.105 10.963l-44.438 57.232a3.482 3.482 0 0 1-2.251 1.31l-6.697.965a3.48 3.48 0 0 1-3.89-2.679l-1.767-7.849a3.474 3.474 0 0 1 .646-2.897l44.292-57.045m14.105 10.963l-14.105-10.963" stroke="#4E5052" stroke-width="5" stroke-linejoin="round"/><path d="M1061.57 546.375l13.6-150.186c.43-4.786 4.67-8.314 9.45-7.88l126.54 11.459c4.78.434 8.31 4.664 7.88 9.45l-13.6 150.186c-.44 4.786-4.67 8.313-9.45 7.88l-126.54-11.459c-4.78-.434-8.31-4.664-7.88-9.45z" fill="#F0F0EF" stroke="#4E5052" stroke-width="5" stroke-linejoin="round"/><path d="M1116.18 404.082l.54-5.912c.71-7.841 4.56-15.073 10.69-20.107 6.14-5.033 14.07-7.455 22.04-6.733 7.97.722 15.33 4.528 20.47 10.583 5.13 6.054 7.62 13.86 6.91 21.7l-.54 5.912-60.11-5.443z" fill="#9C9BF4" stroke="#4E5052" stroke-width="5" stroke-linecap="round" stroke-linejoin="round"/><circle cx="1107.68" cy="440.366" r="12.179" transform="rotate(5.175 1107.68 440.366)" fill="#4E5052" stroke="#4E5052" stroke-width="5"/><rect x="1130.17" y="434.919" width="57.363" height="5.42" rx="2.71" transform="rotate(5.175 1130.17 434.919)" fill="#4E5052"/><rect x="1126.91" y="470.906" width="57.363" height="5.42" rx="2.71" transform="rotate(5.175 1126.91 470.906)" fill="#4E5052"/><rect x="1123.65" y="506.893" width="57.363" height="5.42" rx="2.71" transform="rotate(5.175 1123.65 506.893)" fill="#4E5052"/><rect x="1129.11" y="446.615" width="39.296" height="5.42" rx="2.71" transform="rotate(5.175 1129.11 446.615)" fill="#4E5052"/><rect x="1125.85" y="482.602" width="39.296" height="5.42" rx="2.71" transform="rotate(5.175 1125.85 482.602)" fill="#4E5052"/><rect x="1122.59" y="518.589" width="39.296" height="5.42" rx="2.71" transform="rotate(5.175 1122.59 518.589)" fill="#4E5052"/><path d="M1113.82 437.005l-9.15 7.712-3.47-4.196" stroke="#F7F7F5" stroke-width="5" stroke-linecap="round" stroke-linejoin="round"/><circle cx="1104.34" cy="477.252" r="12.179" transform="rotate(5.175 1104.34 477.252)" fill="#F0F0EF" stroke="#4E5052" stroke-width="5"/><circle cx="1101" cy="514.139" r="14.679" transform="rotate(5.175 1101 514.139)" fill="#4E5052"/><path fill-rule="evenodd" clip-rule="evenodd" d="M1095.22 511.271a2.248 2.248 0 1 1 3.47-2.864l2.36 2.862 2.84-2.391a2.25 2.25 0 0 1 2.9 3.441l-2.87 2.421 2.39 2.897c.79.958.65 2.377-.3 3.168-.96.791-2.38.655-3.17-.303l-2.36-2.863-2.84 2.392a2.25 2.25 0 0 1-2.9-3.442l2.87-2.42-2.39-2.898z" fill="#F7F7F5"/><path d="M606.038 102.866L557 108.813a8.337 8.337 0 0 1-9.281-7.273l-5.996-49.435-4.353-35.897-1.787-14.728a8.338 8.338 0 0 1 7.274-9.281l49.038-5.947 60.191-7.3L704-27.346a8.337 8.337 0 0 1 9.281 7.274l1.787 14.728 4.04 33.318 6.309 52.013a8.338 8.338 0 0 1-7.274 9.281l-51.914 6.297-60.191 7.3z" fill="#F7F7F5"/><path d="M606.038 102.866L557 108.813a8.337 8.337 0 0 1-9.281-7.273l-5.996-49.435m64.315 50.761L591.895-13.748m14.143 116.614l60.191-7.3M591.895-13.748l-49.038 5.947a8.338 8.338 0 0 0-7.274 9.281l1.787 14.728m54.525-29.956l60.191-7.3m14.143 116.614l51.914-6.297a8.338 8.338 0 0 0 7.274-9.28l-6.309-52.014m-52.879 67.59L652.086-21.048m0 0L704-27.345a8.338 8.338 0 0 1 9.281 7.274l1.787 14.728M537.37 16.208L715.068-5.343M537.37 16.208l4.353 35.897M715.068-5.343l4.04 33.318m-177.385 24.13s20.047.376 31.276 5.665c16.648 7.842 22.432 17.51 42.809 16.14 21.794-1.466 33.882-16.317 53.642-25.624 17.909-8.435 49.658-20.31 49.658-20.31" stroke="#4E5052" stroke-width="5" stroke-linejoin="round"/><path d="M561.882 47.84l-9.982-7.824c-1.461-1.145-.809-3.486 1.035-3.71l17.805-2.159c1.843-.224 3.037 1.894 1.891 3.355l-7.822 9.982a2.085 2.085 0 0 1-2.927.355zm136.449-4.514l-8.695 11.095c-1.145 1.462.048 3.579 1.892 3.355l19.79-2.4c1.844-.224 2.497-2.564 1.035-3.71l-11.095-8.695a2.085 2.085 0 0 0-2.927.355zM637.567 57.65l-11.422-9.562c-1.4-1.171-.725-3.448 1.087-3.668l20.228-2.453c1.812-.22 3.011 1.83 1.933 3.302l-8.806 12.015a2.085 2.085 0 0 1-3.02.366z" fill="#3E9C89"/><g clip-path="url(#clip4_1401_7773)"><path d="M809 263l-17.914 17.914-4.477-4.478L800.045 263l-13.436-13.436 4.477-4.478L809 263zm-67.045 0l13.437 13.436-4.478 4.478L733 263l17.914-17.914 4.474 4.478L741.955 263zm22.04 28.5h-6.738l20.748-57h6.738l-20.748 57z" fill="#7DC9F5"/></g><g clip-path="url(#clip5_1401_7773)"><path d="M861.667 564v-11.717a4.748 4.748 0 0 0-1.392-3.358 4.748 4.748 0 0 0-3.358-1.392h-1.584v-5.066h1.584a4.743 4.743 0 0 0 3.358-1.392 4.748 4.748 0 0 0 1.392-3.358V526a9.499 9.499 0 0 1 9.5-9.5h3.166v6.333h-3.166A3.168 3.168 0 0 0 868 526v12.983a6.335 6.335 0 0 1-4.351 6.017 6.339 6.339 0 0 1 4.351 6.017V564a3.17 3.17 0 0 0 3.167 3.167h3.166v6.333h-3.166a9.499 9.499 0 0 1-9.5-9.5zm50.666-11.717V564a9.503 9.503 0 0 1-2.782 6.718 9.503 9.503 0 0 1-6.718 2.782h-3.166v-6.333h3.166A3.164 3.164 0 0 0 906 564v-12.983a6.335 6.335 0 0 1 4.351-6.017 6.334 6.334 0 0 1-4.351-6.017V526a3.166 3.166 0 0 0-3.167-3.167h-3.166V516.5h3.166a9.503 9.503 0 0 1 6.718 2.782 9.503 9.503 0 0 1 2.782 6.718v11.717a4.751 4.751 0 0 0 4.75 4.75h1.584v5.066h-1.584a4.75 4.75 0 0 0-4.75 4.75z" fill="#7DC9F5"/></g><g clip-path="url(#clip6_1401_7773)"><path d="M327.667 225l-23.57 23.57-4.714-4.713L318.24 225l-18.857-18.857 4.714-4.71L327.667 225zm0 23.333H361V255h-33.333v-6.667z" fill="#7DC9F5"/></g><g clip-path="url(#clip7_1401_7773)"><path d="M61.667 370l-23.57 23.57-4.714-4.713L52.24 370l-18.857-18.857 4.714-4.713L61.667 370zm-63.907 0l18.857 18.857-4.714 4.713-23.57-23.57 23.57-23.57 4.714 4.713L-2.24 370z" fill="#7DC9F5"/></g><g clip-path="url(#clip8_1401_7773)"><path d="M1183 143v6.667h-10v46.666h10V203h-16.67v-60H1183zm20 0h16.67v60H1203v-6.667h10v-46.666h-10V143z" fill="#7DC9F5"/></g></g><defs><filter id="filter0_f_1401_7773" x="-417.17" y="155.424" width="1162.97" height="832.316" filterUnits="userSpaceOnUse" color-interpolation-filters="sRGB"><feFlood flood-opacity="0" result="BackgroundImageFix"/><feBlend in="SourceGraphic" in2="BackgroundImageFix" result="shape"/><feGaussianBlur stdDeviation="114.755" result="effect1_foregroundBlur_1401_7773"/></filter><filter id="filter1_f_1401_7773" x="106.55" y="190.407" width="1207.51" height="762.833" filterUnits="userSpaceOnUse" color-interpolation-filters="sRGB"><feFlood flood-opacity="0" result="BackgroundImageFix"/><feBlend in="SourceGraphic" in2="BackgroundImageFix" result="shape"/><feGaussianBlur stdDeviation="114.755" result="effect1_foregroundBlur_1401_7773"/></filter><filter id="filter2_f_1401_7773" x="514.791" y="167.169" width="1049.72" height="970.826" filterUnits="userSpaceOnUse" color-interpolation-filters="sRGB"><feFlood flood-opacity="0" result="BackgroundImageFix"/><feBlend in="SourceGraphic" in2="BackgroundImageFix" result="shape"/><feGaussianBlur stdDeviation="114.755" result="effect1_foregroundBlur_1401_7773"/></filter><clipPath id="clip0_1401_7773"><path fill="#fff" d="M0 0H1200V620H0z"/></clipPath><clipPath id="clip1_1401_7773"><rect x="353" y="73" width="71" height="71" rx="35.5" fill="#fff"/></clipPath><clipPath id="clip2_1401_7773"><rect x="432" y="305" width="71" height="71" rx="35.5" fill="#fff"/></clipPath><clipPath id="clip3_1401_7773"><rect x="906" y="31" width="71" height="71" rx="35.5" fill="#fff"/></clipPath><clipPath id="clip4_1401_7773"><path fill="#fff" transform="translate(733 225)" d="M0 0H76V76H0z"/></clipPath><clipPath id="clip5_1401_7773"><path fill="#fff" transform="translate(849 507)" d="M0 0H76V76H0z"/></clipPath><clipPath id="clip6_1401_7773"><path fill="#fff" transform="translate(291 185)" d="M0 0H80V80H0z"/></clipPath><clipPath id="clip7_1401_7773"><path fill="#fff" transform="translate(-15 330)" d="M0 0H80V80H0z"/></clipPath><clipPath id="clip8_1401_7773"><path fill="#fff" transform="translate(1153 133)" d="M0 0H80V80H0z"/></clipPath></defs></svg>